<?xml version="1.0" standalone="no"?>
<!DOCTYPE svg PUBLIC "-//W3C//DTD SVG 20010904//EN"
 "http://www.w3.org/TR/2001/REC-SVG-20010904/DTD/svg10.dtd">
<svg version="1.0" xmlns="http://www.w3.org/2000/svg"
 width="5000.000000pt" height="3030.000000pt" viewBox="0 0 5000.000000 3030.000000"
 preserveAspectRatio="xMidYMid meet">

<g transform="translate(0.000000,3030.000000) scale(0.100000,-0.100000)"
fill="#000000" stroke="none">
<path d="M0 15150 l0 -15150 25000 0 25000 0 0 15150 0 15150 -25000 0 -25000
0 0 -15150z m37248 10208 c7 -7 12 -8 12 -2 0 5 4 4 8 -2 7 -12 73 -53 167
-104 62 -34 295 -167 315 -181 8 -5 31 -17 50 -27 19 -10 60 -34 90 -53 30
-20 84 -51 120 -70 35 -19 71 -40 79 -47 7 -7 34 -23 60 -36 25 -12 89 -47
141 -77 52 -30 106 -59 120 -66 49 -22 247 -116 355 -168 61 -29 142 -67 180
-85 108 -48 140 -64 143 -72 2 -5 9 -8 15 -8 16 0 134 -57 169 -81 14 -11 33
-19 41 -19 9 0 17 -4 19 -9 2 -5 55 -36 118 -69 63 -32 164 -87 224 -121 60
-33 112 -61 114 -61 3 0 13 -6 21 -14 9 -7 41 -27 71 -43 81 -44 133 -75 150
-88 8 -7 35 -23 60 -36 25 -13 47 -27 50 -30 3 -3 12 -8 20 -12 8 -4 47 -27
85 -52 67 -44 138 -87 209 -130 19 -11 55 -35 80 -52 26 -18 51 -33 56 -33 4
0 10 -4 12 -8 2 -5 28 -25 58 -44 101 -66 205 -139 228 -161 13 -12 27 -21 30
-20 4 1 36 -19 72 -45 91 -67 346 -234 400 -263 25 -13 47 -27 50 -30 3 -4 30
-19 60 -35 30 -15 58 -32 62 -38 4 -6 26 8 52 32 48 44 72 57 40 20 l-19 -21
34 6 c141 28 243 -152 144 -255 -15 -16 -163 -106 -328 -200 -342 -194 -399
-233 -516 -355 -92 -96 -151 -179 -204 -289 -19 -39 -424 -1193 -901 -2565
-476 -1372 -877 -2526 -891 -2566 l-25 -72 -647 -369 c-706 -403 -1055 -603
-1059 -607 -1 -1 213 -127 475 -281 263 -153 516 -304 563 -336 208 -139 375
-324 509 -560 73 -129 143 -337 172 -508 15 -85 18 -347 6 -430 -4 -30 -10
-71 -13 -90 -2 -19 -8 -48 -14 -65 -5 -16 -11 -41 -14 -55 -10 -60 -61 -195
-121 -316 -121 -248 -303 -455 -538 -613 -40 -26 -241 -143 -447 -261 -475
-270 -1391 -791 -1620 -923 -96 -55 -242 -138 -325 -184 -82 -47 -208 -119
-280 -161 -71 -41 -195 -112 -275 -157 -80 -45 -397 -226 -705 -402 -308 -176
-598 -342 -645 -368 -47 -26 -110 -63 -140 -81 -30 -19 -268 -156 -529 -304
-611 -348 -718 -391 -1005 -406 -210 -11 -410 21 -603 95 -70 28 -512 277
-2278 1286 -66 37 -165 94 -220 125 -55 31 -131 75 -170 97 -38 22 -144 82
-235 133 -291 165 -349 211 -426 342 -60 103 -77 168 -78 298 -1 124 3 150 36
238 37 99 109 197 191 260 43 33 260 163 477 284 25 14 106 60 180 103 74 43
155 89 180 103 82 45 304 174 342 198 21 13 40 24 42 24 3 0 29 14 58 31 29
18 67 40 83 49 17 10 71 41 120 70 50 29 108 62 130 75 47 26 66 37 250 143
77 45 249 143 382 219 134 76 243 140 243 143 0 3 -552 320 -1227 705 -1326
757 -1308 746 -1395 879 -54 84 -89 200 -91 306 -1 47 -1 616 1 1265 2 1153 3
1179 21 1152 29 -44 100 -115 121 -122 19 -6 20 -16 20 -151 l0 -144 50 31 50
31 0 115 0 116 35 38 c43 48 45 65 5 44 -36 -19 -73 -19 -109 -1 -44 23 -50
37 -56 136 -4 61 -16 123 -33 175 -46 138 -34 312 28 421 10 18 24 64 31 103
13 70 14 71 44 70 24 -2 283 161 1364 860 733 474 1335 860 1338 857 3 -2 -8
-506 -25 -1118 -18 -673 -26 -1120 -20 -1130 6 -12 5 -18 -2 -18 -7 0 -10 -17
-8 -42 2 -34 7 -42 20 -40 20 3 30 -12 34 -51 1 -21 -1 -26 -10 -17 -6 6 -12
15 -12 20 -1 6 -2 18 -4 28 -1 11 -3 12 -7 4 -2 -6 -9 -9 -15 -6 -6 4 -5 -2 1
-15 9 -16 9 -21 -1 -22 -9 0 -10 -2 -1 -5 7 -3 9 -13 6 -22 -4 -13 -2 -13 9 2
15 19 16 18 28 -18 6 -20 10 -43 7 -50 -4 -9 2 -12 19 -8 22 4 24 1 24 -39 0
-27 8 -57 21 -78 14 -23 17 -36 10 -41 -7 -4 3 -18 24 -37 22 -19 33 -37 29
-46 -3 -8 1 -28 9 -44 15 -28 15 -29 -14 -42 -25 -11 -32 -10 -56 7 -34 24
-109 62 -122 62 -5 0 -10 -44 -10 -98 -1 -93 0 -99 21 -110 24 -12 51 -28 133
-77 28 -16 64 -37 80 -46 17 -10 29 -22 27 -29 -1 -6 2 -9 8 -5 6 4 33 -7 60
-24 28 -17 55 -31 60 -31 6 0 10 -22 10 -50 0 -36 5 -52 18 -59 15 -9 14 -10
-7 -11 -23 0 -21 -3 18 -39 23 -21 37 -41 32 -42 -7 -3 -5 -18 4 -44 8 -22 14
-34 15 -27 0 6 6 12 14 12 9 0 15 -20 19 -66 3 -37 10 -70 17 -74 7 -4 10 -17
8 -28 -4 -15 4 -29 28 -50 22 -19 32 -36 28 -46 -3 -8 1 -25 10 -38 9 -12 16
-34 16 -49 0 -15 7 -29 15 -33 8 -3 15 -12 15 -21 0 -8 5 -15 11 -15 7 0 10
-16 8 -43 -3 -37 -1 -43 13 -39 27 7 36 -62 12 -90 -14 -15 -16 -22 -6 -25 6
-3 9 -10 5 -16 -3 -7 -2 -8 3 -4 5 5 9 18 9 29 0 12 6 23 13 26 8 2 12 -9 12
-37 0 -37 2 -41 25 -41 14 0 25 -4 25 -10 0 -5 4 -10 9 -10 5 0 7 10 4 23 -5
21 -5 21 10 2 8 -10 12 -25 10 -32 -4 -11 -10 -11 -29 2 -13 8 -24 11 -24 6 0
-5 14 -16 30 -25 17 -8 28 -11 25 -6 -3 5 0 12 6 16 8 5 10 1 7 -13 -5 -17 4
-26 43 -48 27 -14 49 -23 49 -18 0 4 4 3 8 -4 10 -15 157 -35 241 -32 94 3
193 24 310 64 80 28 109 34 134 27 24 -6 39 -4 62 11 16 10 184 114 372 231
187 117 463 291 612 387 148 96 278 179 288 184 11 6 353 225 761 489 l742
478 -5 47 c-3 25 -33 478 -66 1006 -56 887 -62 961 -79 975 -11 8 -176 105
-369 215 -192 110 -347 202 -345 205 3 2 32 10 65 17 193 39 360 194 425 393
16 49 18 107 22 525 l3 469 25 23 c69 64 -10 262 -123 309 -45 19 -63 18 -90
-8 -31 -29 -32 -114 -1 -178 l22 -45 6 66 c3 36 11 73 19 82 19 24 76 22 102
-4 20 -20 20 -27 17 -512 -3 -486 -3 -493 -26 -557 -25 -69 -81 -169 -108
-190 -8 -8 -31 -38 -51 -67 -41 -62 -97 -110 -168 -145 -148 -73 -301 -61
-447 35 -35 22 -66 40 -70 39 -5 -1 -8 2 -8 8 0 5 -11 15 -24 22 -14 7 -25 16
-25 21 -1 4 -4 8 -8 8 -5 1 -14 10 -21 21 -13 18 -38 16 -26 -3 3 -5 10 -7 15
-3 6 3 8 -5 5 -20 -3 -15 -1 -24 5 -21 5 4 7 10 5 14 -3 4 1 8 9 8 11 0 12 -4
4 -14 -11 -12 -2 -18 23 -14 4 0 5 -6 1 -15 -4 -11 -8 -12 -13 -4 -4 6 -11 10
-16 9 -17 -4 -44 13 -37 24 3 6 1 7 -6 3 -6 -4 -17 -3 -24 2 -11 10 -88 52
-162 90 -67 35 -1261 725 -1271 736 -9 8 -5 279 12 1041 12 567 23 1103 23
1193 1 108 5 162 12 162 6 0 83 -42 172 -94 254 -146 388 -219 393 -213 3 3 1
155 -5 339 -5 183 -6 337 -2 341 5 5 477 -262 1050 -593 l1042 -601 203 131
204 131 26 72 c14 40 93 268 176 507 83 239 169 472 190 517 90 185 263 396
425 517 71 54 416 268 421 263 2 -2 -6 -28 -18 -58 -41 -107 -24 -240 36 -266
17 -8 3 -20 -97 -82 -64 -40 -140 -91 -169 -113 -130 -101 -260 -265 -329
-411 -17 -37 -100 -267 -185 -510 -111 -320 -150 -444 -141 -449 55 -36 3944
-2298 3952 -2299 5 0 75 188 155 418 80 230 165 456 188 503 73 145 149 248
271 370 122 121 196 175 411 300 286 166 350 206 350 218 0 6 -3 12 -7 12 -5
0 -60 30 -123 66 -208 119 -765 404 -789 404 -6 0 -11 5 -11 11 0 5 -4 8 -8 5
-5 -3 -26 7 -47 21 -21 14 -104 59 -184 100 -152 78 -157 81 -333 182 -60 33
-111 61 -114 61 -3 0 -18 8 -32 19 -15 10 -56 34 -92 53 -86 47 -144 81 -150
88 -5 7 -129 80 -135 80 -5 0 -266 163 -325 203 -25 17 -67 42 -95 57 -27 14
-79 46 -114 70 -35 25 -71 50 -80 55 -18 12 -122 81 -166 112 -45 31 -315 204
-350 223 -16 10 -67 40 -113 69 -46 28 -85 51 -87 51 -2 0 -55 30 -117 67 -62
36 -230 133 -373 216 -143 82 -277 159 -297 171 -20 11 -68 38 -105 60 -81 45
-77 42 -68 55 8 14 18 14 33 -1z m-30786 -3845 c15 -13 18 -32 18 -109 0 -129
-6 -134 -152 -134 -143 0 -148 4 -148 132 0 127 1 128 148 128 93 0 119 -3
134 -17z m10776 5 c8 -8 12 -48 12 -114 0 -132 -3 -134 -145 -134 -142 0 -145
2 -145 134 0 66 4 106 12 114 8 8 52 12 133 12 81 0 125 -4 133 -12z m-13668
-43 c99 -26 178 -71 251 -144 70 -71 107 -136 137 -243 14 -53 17 -107 17
-328 0 -296 -6 -341 -61 -458 -63 -131 -179 -221 -340 -262 -95 -25 -285 -27
-389 -5 -208 44 -356 192 -400 400 -21 102 -21 527 1 633 46 227 198 371 439
418 87 17 258 12 345 -11z m2286 11 c18 -14 19 -35 22 -707 2 -610 1 -695 -13
-715 -15 -23 -21 -24 -128 -24 -75 0 -117 4 -125 12 -9 9 -12 181 -12 714 0
625 2 704 16 718 21 22 211 23 240 2z m5262 -21 c134 -42 243 -128 296 -234
36 -70 44 -126 21 -151 -16 -18 -31 -20 -134 -20 -64 0 -122 4 -130 9 -8 5
-26 33 -40 62 -21 45 -36 59 -81 84 -51 28 -63 30 -155 30 -158 0 -223 -40
-232 -143 -9 -101 52 -149 262 -207 349 -96 447 -142 512 -239 43 -64 57 -115
56 -211 -1 -108 -28 -178 -99 -255 -65 -69 -113 -99 -220 -137 -76 -27 -87
-28 -264 -28 -174 1 -190 2 -266 28 -184 61 -306 188 -321 332 -8 73 11 85
134 85 109 0 138 -9 161 -52 52 -96 128 -142 252 -153 186 -17 320 56 320 172
0 88 -57 129 -262 189 -68 19 -161 47 -208 61 -180 53 -299 141 -340 250 -30
81 -26 236 9 303 70 134 205 222 385 251 92 14 254 2 344 -26z m904 18 c16
-15 18 -36 18 -257 l0 -240 38 35 c52 50 98 76 167 94 218 56 426 -43 507
-245 22 -53 23 -69 26 -428 2 -276 0 -377 -9 -388 -9 -11 -40 -14 -135 -14
-112 0 -124 2 -134 19 -6 12 -10 135 -10 329 0 254 -3 318 -16 362 -31 104
-117 159 -232 147 -76 -8 -132 -44 -168 -109 l-29 -53 -3 -335 c-2 -216 -7
-339 -14 -347 -14 -18 -249 -18 -266 -1 -9 9 -12 181 -12 712 0 637 1 701 17
718 23 26 227 27 255 1z m19268 -89 c0 -2 -9 0 -20 6 -11 6 -20 13 -20 16 0 2
9 0 20 -6 11 -6 20 -13 20 -16z m70 -40 c0 -2 -9 0 -20 6 -11 6 -20 13 -20 16
0 2 9 0 20 -6 11 -6 20 -13 20 -16z m70 -40 c0 -2 -13 2 -30 11 -16 9 -30 18
-30 21 0 2 14 -2 30 -11 17 -9 30 -18 30 -21z m275 -152 c121 -68 254 -144
295 -167 41 -23 98 -55 125 -70 28 -15 88 -49 135 -75 47 -26 193 -107 325
-180 378 -211 1782 -1001 1973 -1111 l34 -20 96 94 c183 178 193 181 61 17
-69 -85 -128 -160 -130 -167 -2 -7 -123 57 -309 164 -168 96 -359 205 -425
243 -104 58 -1483 855 -1557 899 -15 9 -221 128 -458 265 -236 137 -430 250
-430 253 0 5 13 -2 265 -145z m-26662 -62 c111 -42 208 -164 236 -298 16 -76
15 -734 -1 -750 -8 -8 -51 -12 -129 -12 -94 0 -121 3 -133 16 -14 13 -16 58
-16 333 0 366 -4 396 -69 454 -112 101 -292 64 -355 -73 -20 -42 -21 -65 -24
-375 -2 -210 -7 -334 -14 -342 -7 -9 -46 -13 -129 -13 -110 0 -119 1 -133 22
-14 20 -16 85 -16 515 0 588 -15 533 142 533 122 0 138 -9 138 -77 l0 -44 48
39 c56 48 94 67 164 87 75 21 216 14 291 -15z m2472 15 c142 -37 242 -147 280
-307 18 -77 22 -716 5 -749 -10 -17 -22 -19 -134 -19 -88 0 -127 4 -134 13 -7
8 -12 131 -14 347 -4 374 -6 390 -74 449 -90 80 -261 60 -328 -38 -40 -58 -45
-108 -46 -436 0 -228 -3 -314 -12 -323 -8 -8 -51 -12 -127 -12 -92 0 -118 3
-133 17 -17 15 -18 44 -18 512 0 433 2 499 16 519 14 20 23 22 121 22 127 0
143 -9 143 -78 l0 -44 40 35 c103 94 268 130 415 92z m1196 1 c90 -20 162 -58
225 -120 89 -89 137 -207 150 -371 6 -70 4 -89 -10 -110 l-16 -25 -350 0 -350
0 0 -33 c0 -19 6 -55 14 -81 30 -100 103 -155 204 -156 68 0 110 18 170 74
l49 46 120 0 c143 0 153 -6 134 -72 -26 -87 -172 -197 -307 -232 -80 -21 -251
-21 -329 -1 -166 44 -290 174 -330 350 -20 84 -22 268 -5 350 43 207 192 355
390 388 57 10 179 6 241 -7z m4992 -1 c190 -40 319 -163 362 -346 19 -83 20
-301 0 -392 -36 -173 -156 -296 -332 -342 -75 -20 -258 -19 -342 0 -164 39
-275 148 -327 320 -22 73 -26 330 -6 413 41 178 173 308 353 346 84 19 208 19
292 1z m1410 -12 c146 -55 240 -193 269 -393 13 -92 4 -285 -17 -363 -35 -134
-120 -244 -228 -293 -58 -27 -70 -29 -187 -29 -141 0 -184 13 -267 81 l-43 35
0 -227 c0 -198 -2 -230 -17 -246 -23 -26 -227 -27 -255 -1 -17 15 -18 50 -18
707 0 610 2 694 16 714 14 20 23 22 118 22 119 0 135 -7 143 -68 l6 -42 38 34
c46 42 82 62 151 81 69 20 225 13 291 -12z m1249 16 c159 -34 271 -154 314
-336 23 -94 23 -335 0 -423 -37 -145 -113 -247 -224 -302 -64 -32 -70 -33
-192 -33 -114 0 -130 2 -181 26 -31 15 -75 43 -98 64 l-41 37 0 -239 c0 -173
-3 -242 -12 -251 -19 -19 -232 -16 -252 4 -14 14 -16 92 -16 711 0 634 1 698
17 715 13 15 32 18 116 18 121 0 137 -9 137 -78 l0 -45 44 41 c24 22 59 48 77
58 78 41 209 54 311 33z m1919 -3 c137 -32 242 -138 287 -291 11 -38 16 -130
19 -393 4 -304 3 -345 -11 -367 -16 -24 -20 -25 -136 -25 -112 0 -120 1 -134
22 -14 19 -16 69 -16 338 0 180 -4 330 -10 351 -24 86 -84 134 -178 146 -74 8
-138 -12 -187 -61 -62 -63 -65 -82 -65 -441 0 -282 -2 -321 -17 -337 -14 -15
-32 -18 -133 -18 -77 0 -120 4 -128 12 -9 9 -12 137 -12 517 0 455 2 506 17
523 13 15 32 18 115 18 129 0 138 -5 138 -76 l0 -55 42 41 c98 94 259 132 409
96z m1182 -23 c35 -17 83 -48 106 -68 l41 -37 0 43 c0 70 15 79 136 79 75 0
106 -4 117 -14 10 -11 15 -61 20 -203 10 -279 8 -838 -3 -915 -27 -185 -129
-311 -295 -365 -76 -24 -302 -29 -390 -9 -170 40 -324 185 -325 307 0 55 13
60 146 57 l118 -3 23 -35 c68 -107 97 -124 208 -124 66 -1 89 4 130 24 75 38
89 69 94 214 l3 119 -38 -31 c-118 -94 -323 -115 -470 -48 -104 48 -187 162
-220 303 -22 91 -22 305 0 396 31 134 104 241 197 292 78 42 140 55 245 51 77
-3 102 -8 157 -33z m-13011 0 c17 -15 18 -44 18 -519 0 -444 -2 -504 -16 -518
-12 -13 -39 -16 -129 -16 -103 0 -115 2 -125 19 -6 13 -10 193 -10 517 0 449
2 499 17 516 23 26 217 27 245 1z m10774 3 c18 -14 19 -33 22 -512 2 -435 1
-500 -13 -520 -15 -23 -21 -24 -130 -24 -106 0 -115 1 -129 22 -14 20 -16 85
-16 515 0 588 -15 533 143 533 73 0 109 -4 123 -14z m17094 -445 c0 -5 3 -18
6 -28 6 -16 5 -16 -9 2 -19 23 -21 35 -7 35 6 0 10 -4 10 -9z m34 -37 c3 -8 2
-12 -4 -9 -6 3 -10 10 -10 16 0 14 7 11 14 -7z m-1939 -537 c11 -16 14 -113
15 -556 0 -304 5 -563 10 -599 48 -299 255 -598 499 -720 71 -35 80 -37 171
-37 91 0 100 2 172 38 89 43 157 112 197 197 l26 55 5 461 c5 436 6 463 24
483 23 25 63 27 88 4 17 -15 18 -43 18 -473 0 -388 -2 -464 -16 -511 -68 -230
-278 -389 -514 -389 -127 0 -228 37 -347 128 -240 183 -397 438 -448 726 -12
73 -15 188 -15 636 0 508 1 548 18 562 35 31 73 29 97 -5z m-1016 -2591 c10
-12 8 -16 -11 -22 -33 -11 -41 -11 -61 -2 -19 10 -13 32 7 25 7 -3 19 -1 27 4
19 12 25 11 38 -5z m-5 -48 c-5 -7 -2 -9 8 -6 8 4 15 0 15 -7 0 -10 -5 -11
-19 -4 -20 11 -24 29 -7 29 5 0 7 -5 3 -12z m43 -30 c-3 -8 -6 -5 -6 6 -1 11
2 17 5 13 3 -3 4 -12 1 -19z m160 -370 c-3 -8 -6 -5 -6 6 -1 11 2 17 5 13 3
-3 4 -12 1 -19z m13866 -5641 c1185 -684 1335 -773 1320 -785 -10 -7 -182
-112 -383 -233 -363 -219 -370 -224 -1125 -780 -1145 -844 -1361 -984 -2754
-1788 -412 -238 -650 -370 -660 -366 -9 3 -62 33 -119 66 l-103 60 -58 -59
c-160 -163 -431 -281 -751 -329 -140 -20 -432 -20 -567 1 -276 42 -484 121
-655 248 -84 61 -139 123 -185 207 -46 82 -63 153 -63 272 l0 96 -112 7 c-139
9 -222 21 -360 52 -303 69 -545 217 -657 403 -73 121 -71 89 -72 995 -2 622 1
821 11 856 70 254 382 469 797 550 59 12 178 26 263 32 140 10 171 9 324 -11
360 -46 620 -147 798 -310 110 -100 174 -231 180 -363 2 -32 5 -58 7 -58 8 0
257 154 466 288 385 246 601 399 1270 897 365 272 704 521 752 554 48 33 239
151 423 263 l335 204 170 -98 c94 -54 772 -446 1508 -871z m-37318 895 c260
-88 441 -278 506 -529 26 -104 26 -272 0 -375 -53 -208 -196 -385 -386 -478
-162 -80 -56 -74 -1404 -78 -967 -2 -1206 0 -1213 10 -4 7 -8 124 -8 260 0
245 0 247 -21 250 -43 6 -62 50 -67 147 -4 88 -5 90 -31 93 -21 2 -27 9 -29
36 -3 30 -1 32 27 32 30 0 31 1 31 49 0 58 15 75 65 68 19 -3 38 0 41 5 4 6
10 5 15 -3 6 -10 9 -10 9 -2 0 6 -5 15 -10 18 -6 4 -8 11 -4 16 3 5 0 8 -8 7
-10 -2 -14 45 -16 240 -2 190 0 242 10 242 9 0 8 3 -2 10 -10 7 403 9 1205 7
l1220 -2 70 -23z m30243 -542 c21 -31 23 -44 20 -115 -3 -65 -9 -93 -35 -148
-57 -121 -170 -217 -256 -217 -89 0 -122 49 -115 172 3 43 9 83 14 88 5 5 44
-10 98 -40 49 -28 93 -50 98 -50 5 0 33 16 63 35 l55 35 0 141 c0 127 2 140
17 137 10 -2 28 -19 41 -38z m-34218 5 c37 -19 70 -62 70 -91 0 -21 -5 -24
-41 -24 -33 0 -47 6 -69 30 -34 37 -94 41 -131 11 -22 -18 -24 -26 -24 -120 0
-91 2 -103 23 -123 17 -17 34 -23 67 -23 52 0 79 22 90 73 l7 32 -46 0 c-44 0
-46 1 -46 30 l0 30 91 0 92 0 -5 -71 c-6 -75 -21 -105 -72 -143 -22 -17 -42
-21 -109 -21 -71 0 -87 3 -116 24 -50 36 -71 90 -71 189 0 48 6 96 14 115 18
42 63 83 106 96 43 13 132 6 170 -14z m628 -37 l3 -58 44 0 c45 0 45 0 45 -35
0 -35 0 -35 -46 -35 l-46 0 4 -80 c4 -89 11 -100 66 -100 31 0 33 -2 30 -32
-3 -30 -7 -33 -38 -36 -19 -2 -52 1 -72 8 -53 15 -68 49 -68 155 l0 85 -30 0
c-28 0 -30 3 -30 35 0 32 2 35 30 35 30 0 30 1 30 53 0 63 4 69 45 65 29 -3
30 -5 33 -60z m571 37 c31 -16 71 -68 71 -92 0 -9 -17 -13 -50 -13 -37 0 -50
4 -50 15 0 34 -89 48 -122 18 -39 -35 -12 -64 82 -88 113 -29 150 -60 150
-123 0 -82 -66 -132 -175 -132 -61 0 -129 23 -152 52 -7 8 -16 29 -19 46 -6
32 -6 32 36 32 33 0 46 -5 61 -24 24 -31 69 -41 113 -26 38 12 55 43 36 65 -7
8 -50 26 -98 40 -102 32 -142 65 -142 119 0 64 32 105 99 127 37 12 123 4 160
-16z m-839 -103 c48 -24 80 -75 80 -128 l0 -44 -105 0 c-94 0 -105 -2 -105
-18 0 -55 69 -82 105 -42 18 20 88 29 99 12 9 -16 -19 -55 -54 -73 -47 -25
-135 -25 -176 0 -78 47 -88 211 -16 274 42 38 118 46 172 19z m33325 -22 c8
-12 -34 -120 -52 -135 -6 -5 -20 -37 -29 -70 -23 -77 -32 -41 -10 42 35 137
69 198 91 163z m3436 -572 c21 -79 -33 -214 -108 -265 -15 -11 -167 -100 -337
-197 -273 -157 -311 -177 -332 -168 -60 28 -29 208 49 282 14 14 167 107 339
207 354 205 370 211 389 141z m-14587 -1897 c44 -11 103 -32 131 -45 48 -22
1131 -643 1440 -826 72 -43 387 -225 700 -405 314 -181 578 -335 587 -343 10
-8 15 -19 12 -24 -4 -6 2 -7 16 -3 16 5 20 4 15 -5 -4 -7 -22 -9 -47 -6 -28 4
-44 1 -55 -9 -8 -8 -23 -15 -34 -15 -19 0 -28 -6 -64 -37 -7 -7 -20 -13 -27
-13 -7 0 -22 -7 -32 -15 -11 -8 -28 -15 -39 -15 -10 0 -25 -6 -32 -12 -34 -30
-45 -38 -55 -38 -17 0 -140 -63 -140 -72 0 -4 -7 -8 -15 -8 -21 0 -145 -61
-145 -72 0 -4 -7 -8 -15 -8 -21 0 -145 -61 -145 -72 0 -4 -7 -8 -15 -8 -20 0
-145 -61 -145 -70 0 -4 -10 -10 -22 -13 -33 -7 -91 -30 -106 -42 -7 -5 -19
-16 -27 -22 -7 -7 -23 -13 -34 -13 -11 0 -23 -5 -26 -10 -4 -6 -11 -7 -17 -4
-7 4 -8 2 -4 -5 4 -6 12 -9 17 -6 5 4 9 1 9 -6 0 -8 4 -8 15 1 8 7 15 9 15 4
0 -5 5 -2 10 6 9 13 10 13 10 0 0 -13 1 -13 11 0 9 13 10 13 6 0 -2 -8 -10
-14 -16 -12 -6 1 -11 -4 -11 -10 0 -9 -4 -8 -10 2 -5 8 -10 10 -10 4 0 -12 93
-71 187 -118 127 -64 357 -104 523 -91 407 32 731 203 812 428 l19 52 -4 -60
c-16 -299 -545 -550 -1042 -495 -128 14 -206 32 -278 64 -44 19 -787 447
-2362 1359 -170 99 -366 211 -435 250 -153 86 -199 117 -246 165 -105 106
-111 257 -17 392 101 143 342 268 613 316 118 21 423 12 524 -15z m7180 -11
c49 -59 46 -163 -8 -277 -65 -134 -162 -213 -263 -213 -45 0 -54 4 -77 30 -14
17 -28 46 -32 65 -7 40 2 133 16 155 10 16 21 12 136 -54 l61 -34 56 36 57 37
0 143 c0 157 6 169 54 112z m-525 -133 c6 -8 8 -17 5 -20 -3 -3 -17 -34 -30
-69 -12 -35 -23 -54 -24 -43 -1 23 -40 -91 -40 -118 0 -10 -5 -15 -10 -12 -17
10 12 142 51 233 19 44 29 51 48 29z m-3711 -1552 c-3 -3 -9 2 -12 12 -6 14
-5 15 5 6 7 -7 10 -15 7 -18z m4943 -62 c12 -16 12 -17 -2 -6 -9 7 -19 10 -22
6 -4 -3 1 -12 11 -20 16 -12 15 -13 -3 -6 -18 6 -19 5 -5 -12 9 -11 10 -16 3
-11 -8 4 -13 2 -13 -5 0 -7 -3 -10 -6 -6 -4 3 -12 0 -20 -7 -7 -7 -392 -233
-856 -501 -464 -268 -1180 -682 -1593 -921 -744 -431 -1149 -664 -1235 -712
-25 -14 -263 -151 -530 -305 -512 -295 -582 -333 -768 -403 -99 -37 -329 -107
-426 -129 -23 -5 -27 -8 -15 -16 7 -5 11 -9 7 -9 -7 0 16 -104 37 -168 20 -57
19 -185 -1 -238 l-16 -41 -91 -16 c-84 -15 -194 -29 -319 -40 -46 -4 -70 2
-70 19 0 5 -3 8 -7 7 -4 -1 -8 3 -9 10 -2 24 -9 43 -47 122 -21 46 -37 94 -37
112 1 18 -3 35 -8 38 -12 8 -13 62 -1 69 5 3 11 24 13 46 3 38 2 40 -23 40
-14 0 -84 4 -155 10 -390 30 -611 83 -859 205 -71 36 -404 223 -740 418 -496
287 -610 357 -608 373 1 10 0 13 -3 7 -9 -20 -28 -15 -59 13 -15 14 -30 23
-33 20 -3 -3 -11 -1 -19 5 -11 10 -11 15 -1 27 12 13 10 14 -9 2 -18 -12 -25
-11 -47 3 -14 10 -26 24 -26 32 0 7 -7 21 -16 29 -23 23 -13 40 12 19 11 -10
26 -19 34 -21 8 -2 17 -8 18 -13 2 -5 10 -9 18 -9 9 0 12 -4 9 -10 -3 -5 0 -7
9 -4 9 4 20 -4 29 -22 9 -17 17 -23 21 -16 9 14 112 -43 108 -59 -1 -6 2 -8 8
-4 5 3 292 -157 637 -356 345 -199 660 -377 701 -396 167 -76 390 -134 627
-164 148 -19 521 -16 680 5 345 46 647 134 900 261 66 33 903 513 1860 1066
957 553 1817 1049 1910 1102 94 53 364 209 600 346 237 137 431 250 431 250 1
1 8 -7 15 -16z m-5364 -69 c-3 -3 -12 -4 -19 -1 -8 3 -5 6 6 6 11 1 17 -2 13
-5z m9677 -1856 c21 -7 41 -20 45 -29 6 -17 9 -19 32 -19 5 0 8 -3 6 -8 -3 -4
5 -20 18 -36 17 -21 23 -24 21 -12 -1 10 -9 22 -17 27 -8 5 -9 9 -3 9 19 0 31
-23 29 -53 -1 -20 2 -26 12 -23 11 5 11 1 2 -15 -8 -15 -8 -19 0 -15 6 4 11 0
11 -9 0 -23 -60 -45 -122 -45 -61 1 -140 30 -211 78 -97 68 -86 125 33 163 28
9 86 4 144 -13z m3222 -69 c-4 -22 -17 -62 -31 -88 -45 -89 -118 -142 -506
-365 -200 -116 -616 -356 -924 -534 -308 -178 -1082 -626 -1720 -995 -638
-369 -1326 -767 -1530 -885 -203 -118 -404 -228 -445 -244 -218 -88 -526 -94
-719 -14 -40 17 -1700 969 -2066 1186 -16 10 -214 124 -440 255 -225 130 -427
253 -448 273 -46 44 -73 93 -82 147 l-6 40 25 -46 c35 -64 71 -93 241 -191
238 -136 1535 -882 2168 -1247 627 -362 649 -372 829 -393 172 -19 390 15 543
86 38 18 534 301 1100 628 567 327 1053 607 1080 623 28 15 345 197 705 405
360 207 966 556 1345 775 380 218 714 415 743 437 59 44 118 118 127 161 10
42 18 32 11 -14z m-3452 -107 c77 -36 146 -96 146 -126 0 -13 -10 -32 -22 -44
-72 -66 -212 -54 -341 32 -81 54 -96 105 -40 141 67 44 159 43 257 -3z m-278
-156 c155 -71 194 -144 103 -191 -81 -43 -215 -20 -319 52 -94 66 -97 105 -9
151 58 31 142 26 225 -12z m-341 -131 c32 -9 82 -29 111 -46 50 -28 114 -89
114 -109 0 -4 -11 -22 -25 -39 -55 -65 -166 -68 -288 -8 -72 36 -137 93 -137
121 0 27 43 66 88 80 61 19 67 19 137 1z m-430 -251 c110 -28 215 -104 215
-155 0 -52 -84 -94 -174 -87 -101 8 -266 109 -266 162 0 29 38 64 87 81 50 18
67 18 138 -1z m-2194 -134 c50 -10 154 -55 165 -71 2 -4 -56 -42 -129 -84
-104 -60 -135 -74 -147 -65 -67 48 -182 75 -284 66 -39 -4 -68 -5 -65 -2 7 7
161 97 204 119 41 21 130 45 176 46 15 1 51 -4 80 -9z m1969 -39 c69 -26 152
-88 164 -124 8 -23 6 -31 -19 -57 -71 -74 -208 -62 -346 32 -82 55 -93 104
-33 143 62 40 138 42 234 6z m-1656 -115 l108 -64 -73 -42 c-41 -24 -103 -60
-139 -81 l-65 -38 -86 7 c-96 8 -115 18 -121 65 -3 18 -7 38 -9 46 -3 10 40
40 126 92 72 42 135 77 140 78 6 0 59 -28 119 -63z m-545 -32 c71 -21 129 -74
137 -126 8 -48 35 -68 89 -68 111 0 213 -36 259 -90 96 -115 -94 -248 -301
-211 -38 7 -86 22 -108 34 -47 27 -85 79 -85 118 0 39 -27 51 -133 60 -265 22
-327 212 -94 285 58 18 173 17 236 -2z m1906 -3 c72 -25 162 -87 181 -123 14
-27 14 -32 0 -54 -26 -39 -74 -58 -146 -59 -54 0 -77 6 -140 36 -83 39 -150
96 -150 126 0 25 49 71 86 83 49 14 112 11 169 -9z m-1127 -116 c44 -49 43
-93 0 -140 -28 -29 -238 -159 -245 -151 -2 1 2 17 7 35 16 58 -39 140 -106
157 -13 3 -24 9 -24 13 0 4 59 42 132 83 l132 76 36 -18 c20 -10 51 -35 68
-55z m-1188 15 c-17 -59 16 -117 87 -151 55 -26 61 -19 -107 -116 l-114 -66
-44 23 c-93 50 -119 125 -64 187 23 27 224 153 244 153 4 0 3 -13 -2 -30z
m2090 -79 c77 -39 140 -96 140 -127 0 -44 -86 -94 -155 -89 -57 4 -141 35
-203 75 -71 45 -91 77 -74 115 32 71 177 84 292 26z m-1827 -117 c90 -8 103
-15 110 -56 3 -18 7 -41 9 -50 2 -13 -32 -37 -134 -96 l-136 -79 -104 59 c-57
33 -106 63 -110 66 -10 10 263 171 280 166 8 -2 46 -7 85 -10z m1449 -112
c129 -63 163 -126 96 -174 -28 -20 -45 -23 -118 -23 -76 0 -93 4 -152 33 -87
42 -128 81 -128 119 0 57 54 84 160 80 62 -2 87 -8 142 -35z m-1179 -87 c41
-12 86 -16 147 -13 49 1 86 0 82 -4 -26 -26 -241 -138 -284 -148 -83 -20 -194
-8 -272 30 -36 18 -66 36 -66 39 0 3 60 40 133 82 l132 75 35 -22 c19 -12 61
-30 93 -39z m874 -57 c100 -37 181 -117 157 -155 -38 -61 -145 -80 -246 -45
-115 41 -206 121 -182 160 45 70 150 86 271 40z m-253 -171 c127 -60 167 -121
110 -166 -67 -52 -163 -52 -270 0 -154 76 -176 151 -57 195 57 21 133 11 217
-29z m2151 -117 c23 -9 25 -13 15 -25 -11 -13 -10 -14 4 -9 24 9 20 -19 -6
-43 -28 -25 -82 -53 -103 -53 -8 0 -15 -5 -15 -10 0 -6 -14 -19 -32 -30 l-31
-19 -41 24 c-29 17 -46 21 -56 14 -13 -8 -11 -12 10 -29 14 -11 28 -20 33 -20
16 0 5 -16 -24 -33 -30 -17 -33 -17 -66 3 -37 22 -73 26 -73 10 0 -6 13 -19
30 -28 16 -9 29 -21 27 -26 -2 -5 -32 -24 -66 -43 -35 -18 -75 -42 -88 -53
-14 -11 -30 -20 -35 -20 -5 0 -26 -11 -46 -25 -31 -21 -48 -25 -117 -25 l-80
0 33 -21 c17 -12 32 -23 32 -25 0 -2 -14 -13 -32 -24 l-31 -19 -46 27 c-25 14
-64 37 -86 51 l-40 24 40 18 c25 12 66 19 110 19 l70 1 -32 16 c-40 20 -41 26
-6 48 22 15 32 16 56 7 26 -10 35 -8 71 17 22 15 58 34 79 40 20 7 37 17 37
22 0 4 14 15 30 24 17 9 30 13 30 9 0 -3 16 8 35 25 20 17 47 31 60 31 14 0
25 5 25 10 0 15 61 50 86 50 11 0 39 17 62 39 53 51 124 71 177 51z m-2371
-101 c0 -19 -5 -33 -10 -31 -5 2 -8 12 -6 23 2 14 -3 22 -16 26 -11 3 -22 13
-25 24 -5 17 -2 17 27 5 26 -11 31 -17 30 -47z m82 -74 c-4 -15 -10 -25 -13
-21 -3 3 -13 0 -22 -7 -14 -10 -14 -10 -4 4 7 9 10 19 6 23 -4 4 1 4 12 0 20
-7 20 -6 0 9 -14 11 -24 12 -33 5 -10 -8 -11 -7 -6 7 5 11 3 16 -2 12 -8 -5
-11 24 -6 58 1 5 18 -7 38 -27 31 -30 36 -41 30 -63z m1423 -311 c2 -2 -6 -12
-19 -22 l-22 -18 36 -19 c20 -11 36 -22 36 -25 0 -3 -33 -23 -72 -44 -40 -21
-88 -49 -107 -62 -19 -13 -45 -24 -58 -24 -15 0 -34 -12 -49 -29 -34 -41 -102
-65 -161 -58 l-48 5 29 -23 29 -23 -33 -17 c-28 -14 -37 -15 -59 -4 -14 7 -71
17 -126 24 l-100 11 35 22 c29 19 44 22 88 17 28 -3 52 -3 52 -1 0 3 -4 16 -9
30 -9 22 -6 27 26 46 37 22 52 16 53 -19 0 -8 14 -1 35 18 19 16 53 35 75 42
21 7 37 15 35 19 -2 4 12 14 31 24 34 16 37 16 69 -4 37 -23 75 -26 75 -7 0 7
-16 21 -36 31 -35 16 -36 18 -18 30 49 34 115 68 121 63 3 -4 14 5 25 18 17
21 23 23 41 14 12 -7 24 -13 26 -15z"/>
<path d="M36040 22910 c-24 -71 -42 -131 -40 -133 3 -2 64 -37 137 -79 l131
-76 40 116 c22 65 43 124 47 133 5 13 -23 33 -124 93 -72 42 -134 76 -138 76
-4 0 -28 -58 -53 -130z"/>
<path d="M33736 22864 c-36 -35 -33 -112 6 -191 l23 -48 3 45 c5 93 22 120 76
120 68 0 65 26 66 -601 1 -327 5 -571 10 -579 6 -9 10 164 10 458 0 459 1 475
20 499 51 65 3 215 -92 283 -46 34 -97 39 -122 14z"/>
<path d="M36450 22674 c-24 -70 -38 -129 -34 -134 19 -18 319 -188 326 -184 8
5 92 254 87 258 -16 13 -319 186 -327 186 -6 0 -29 -57 -52 -126z"/>
<path d="M36965 22518 c-2 -7 -22 -64 -45 -127 -22 -62 -37 -117 -34 -122 3
-5 24 -19 47 -31 l42 -22 -105 -24 c-58 -13 -154 -36 -214 -51 l-109 -26 -64
-145 -64 -145 -24 -1120 c-14 -616 -25 -1178 -25 -1250 1 -71 0 -132 0 -135
-1 -3 -3 -17 -4 -31 -2 -19 2 -26 13 -25 8 2 17 9 19 16 3 7 0 10 -5 7 -5 -3
-9 7 -9 24 0 16 4 29 8 29 5 0 6 -10 3 -21 -5 -15 -4 -19 4 -15 6 4 11 14 11
22 0 8 5 14 10 14 6 0 10 5 10 12 0 6 6 19 14 27 7 9 21 40 32 69 10 28 22 52
26 52 4 0 8 5 8 12 0 6 6 19 13 27 24 28 52 114 39 119 -7 2 -12 11 -12 20 1
15 2 15 11 0 15 -27 39 -22 39 7 0 14 4 25 9 25 5 0 12 14 16 30 4 17 10 30
15 30 4 0 11 11 14 25 4 14 11 25 16 25 6 0 10 11 10 25 0 14 5 25 10 25 6 0
10 7 10 15 0 8 4 15 8 15 5 0 14 18 21 40 6 22 16 40 21 40 6 0 10 11 10 25 0
14 5 25 10 25 6 0 10 6 10 14 0 8 3 16 8 18 9 4 72 131 72 146 0 6 3 12 8 14
4 2 37 64 74 138 38 74 79 153 92 175 l24 39 6 -64 c3 -36 22 -371 42 -745 20
-374 39 -708 43 -742 l6 -63 849 548 849 547 58 165 c32 91 59 168 59 171 0
11 -781 452 -787 445 -3 -3 -21 4 -40 15 -19 12 -36 19 -38 17 -2 -2 -27 -71
-56 -153 -28 -83 -54 -153 -58 -158 -4 -4 -36 9 -72 30 l-64 37 53 154 c28 85
52 160 52 167 0 17 -320 199 -330 188 -5 -4 -32 -76 -60 -160 l-52 -152 -57
31 c-31 17 -61 35 -68 40 -9 7 2 50 44 170 53 151 55 161 38 171 -11 5 -28 20
-39 32 -12 12 -112 73 -223 136 l-202 114 -3 80 c-2 44 -2 82 -1 84 1 2 14 -4
29 -14 14 -9 30 -13 34 -8 4 4 58 158 120 341 96 283 111 335 99 346 -12 11
-236 143 -297 175 -18 9 -23 9 -27 -1z m-158 -2370 c-3 -8 -6 -5 -6 6 -1 11 2
17 5 13 3 -3 4 -12 1 -19z m-163 -313 c3 -8 1 -15 -4 -15 -6 0 -10 7 -10 15 0
8 2 15 4 15 2 0 6 -7 10 -15z"/>
<path d="M37325 21914 c-65 -190 -116 -346 -114 -348 14 -12 330 -188 333
-185 4 5 223 646 228 668 3 14 -5 20 -209 138 l-121 71 -117 -344z"/>
<path d="M37802 21653 c-61 -181 -112 -334 -114 -342 -3 -15 308 -203 326
-198 13 4 237 670 229 678 -9 7 -322 189 -327 189 -1 0 -53 -147 -114 -327z"/>
<path d="M38275 21378 c-61 -178 -111 -330 -113 -339 -2 -11 43 -42 157 -107
89 -51 164 -92 168 -92 9 0 238 668 232 674 -15 12 -320 186 -326 186 -5 0
-58 -145 -118 -322z"/>
<path d="M38855 21418 c-74 -204 -223 -663 -218 -668 16 -14 313 -180 322
-180 5 0 12 8 15 17 25 64 216 632 216 641 0 10 -76 57 -282 176 -37 21 -49
25 -53 14z"/>
<path d="M39306 21078 c-14 -40 -66 -191 -114 -334 l-89 -262 107 -61 c59 -33
111 -61 115 -61 6 0 115 66 167 101 4 3 46 116 93 252 l84 247 -117 68 c-179
106 -208 122 -214 122 -3 0 -18 -33 -32 -72z"/>
<path d="M39759 20745 c-25 -74 -43 -135 -40 -135 4 0 64 38 135 84 l128 84
-87 51 c-48 28 -88 51 -88 51 -1 0 -22 -61 -48 -135z"/>
<path d="M39895 20355 c-11 -7 -75 -49 -143 -93 l-123 -80 78 -44 c43 -25 88
-50 99 -56 21 -11 24 -6 73 134 28 80 51 147 51 150 0 8 -15 3 -35 -11z"/>
<path d="M39021 20239 c-18 -50 -31 -93 -29 -94 5 -5 172 103 176 113 1 4 -24
22 -57 40 l-58 32 -32 -91z"/>
<path d="M39487 19947 l-37 -114 2 -379 c3 -318 5 -379 17 -379 15 0 305 819
298 839 -4 8 -203 130 -236 144 -4 1 -23 -49 -44 -111z"/>
<path d="M39071 19824 l-212 -137 3 -136 3 -136 113 -64 c90 -51 116 -61 122
-50 5 7 52 140 104 295 89 261 114 364 88 364 -5 0 -104 -61 -221 -136z"/>
<path d="M30878 19762 l-197 -127 -1 -497 c0 -274 3 -498 6 -498 4 0 94 51
200 113 l194 112 0 513 c0 281 -1 512 -2 512 -2 0 -92 -58 -200 -128z"/>
<path d="M38473 19433 l-193 -125 1 -437 c0 -302 3 -428 10 -411 8 20 276 780
370 1048 10 28 15 52 11 51 -4 0 -94 -57 -199 -126z"/>
<path d="M30320 19400 l-195 -126 -3 -482 c-1 -265 0 -482 2 -482 6 0 379 219
388 228 4 4 7 229 6 498 l-3 491 -195 -127z"/>
<path d="M39268 19302 c-16 -40 -28 -80 -28 -88 0 -15 46 -41 55 -32 3 3 4 48
3 99 l-3 94 -27 -73z"/>
<path d="M38505 18729 c-108 -319 -196 -582 -194 -583 2 -2 93 48 202 112
l197 117 0 467 c0 258 -2 468 -3 468 -2 0 -93 -261 -202 -581z"/>
<path d="M38860 18923 c0 -169 4 -303 8 -297 10 10 172 483 172 500 0 9 -157
104 -173 104 -4 0 -7 -138 -7 -307z"/>
<path d="M37902 19067 l-202 -132 2 -185 3 -184 150 -86 c83 -47 176 -101 208
-119 l57 -32 0 435 c0 240 -3 436 -7 435 -5 0 -99 -60 -211 -132z"/>
<path d="M29765 19042 l-200 -129 -3 -461 c-1 -285 1 -462 7 -462 11 0 370
207 389 224 9 9 12 115 10 484 l-3 473 -200 -129z"/>
<path d="M39180 19047 c0 -2 -36 -108 -80 -237 -44 -128 -79 -237 -78 -242 2
-4 64 27 138 71 l135 78 3 136 3 135 -56 31 c-52 29 -65 35 -65 28z"/>
<path d="M37473 18789 c-35 -23 -63 -45 -63 -48 0 -4 28 -23 63 -43 l62 -36 3
44 c2 25 2 62 0 84 l-3 40 -62 -41z"/>
<path d="M29192 18673 l-192 -125 2 -416 3 -416 26 -15 c26 -14 32 -11 203 88
l176 103 0 454 c0 357 -3 454 -12 453 -7 0 -100 -57 -206 -126z"/>
<path d="M30875 18566 l-190 -112 -3 -678 -2 -678 68 39 c37 21 127 72 200
113 l131 75 1 678 c0 372 -3 677 -7 676 -5 0 -93 -51 -198 -113z"/>
<path d="M37256 18390 l-68 -200 7 -172 c4 -95 10 -199 14 -231 l6 -58 92 -54
91 -54 71 211 71 210 0 217 0 217 -100 57 c-55 31 -103 57 -107 57 -4 0 -39
-90 -77 -200z"/>
<path d="M39109 18427 l-174 -102 -37 -105 -37 -105 0 -405 c-1 -222 3 -400 7
-395 11 13 424 1206 419 1211 -2 2 -82 -42 -178 -99z"/>
<path d="M28774 18402 c-68 -43 -71 -47 -70 -82 0 -20 -12 -64 -28 -99 -35
-79 -32 -129 13 -224 21 -42 31 -75 28 -90 -5 -19 3 -27 60 -60 36 -20 68 -36
70 -34 2 2 2 146 1 319 l-3 315 -71 -45z"/>
<path d="M30313 18237 l-193 -112 0 -526 0 -527 125 -71 c69 -39 130 -71 136
-71 6 0 39 17 74 38 l65 37 0 673 c0 369 -3 672 -7 672 -5 0 -95 -51 -200
-113z"/>
<path d="M37795 18308 c-3 -7 -27 -80 -55 -163 -48 -143 -50 -154 -50 -258 0
-60 4 -107 8 -105 5 2 97 55 205 118 192 112 197 116 212 159 8 25 15 52 15
62 0 11 -52 46 -160 108 -88 50 -162 91 -165 91 -3 0 -8 -6 -10 -12z"/>
<path d="M38495 18067 l-210 -123 -3 -417 -2 -416 31 -16 c17 -9 32 -15 34
-13 12 12 366 1072 363 1088 -3 17 -31 3 -213 -103z"/>
<path d="M29758 17914 l-198 -116 0 -198 c0 -146 3 -200 13 -208 22 -18 378
-222 388 -222 5 0 9 172 9 430 0 237 -3 430 -7 430 -5 -1 -97 -53 -205 -116z"/>
<path d="M37850 17687 l-155 -92 -3 -70 -3 -71 85 -49 c46 -26 87 -49 91 -49
4 -1 41 95 81 212 40 116 70 212 66 212 -4 0 -77 -42 -162 -93z"/>
<path d="M29310 17654 c-41 -25 -79 -49 -83 -54 -7 -6 159 -110 177 -110 3 0
6 47 6 105 0 78 -3 105 -12 104 -7 0 -47 -21 -88 -45z"/>
<path d="M38598 17339 c-59 -173 -108 -320 -110 -328 -3 -14 208 -148 218
-139 2 3 3 179 2 393 l-3 388 -107 -314z"/>
<path d="M38117 17585 c-5 -11 -31 -85 -58 -164 -40 -116 -47 -147 -37 -157
21 -19 97 -58 103 -52 3 3 4 92 3 199 -2 115 -6 186 -11 174z"/>
<path d="M35480 17507 l-115 -74 -3 -512 -2 -513 32 20 c18 11 85 50 148 87
63 38 116 69 117 70 3 1 -52 887 -59 968 l-3 28 -115 -74z"/>
<path d="M37220 17526 c0 -9 7 -16 16 -16 17 0 14 22 -4 28 -7 2 -12 -3 -12
-12z"/>
<path d="M28700 17510 c0 -11 6 -20 14 -20 21 0 31 21 15 31 -22 14 -29 11
-29 -11z"/>
<path d="M37320 17377 l-85 -52 4 -120 c2 -73 8 -124 15 -131 11 -11 274 -164
282 -164 2 0 4 101 4 225 l0 224 -61 36 c-33 19 -63 35 -67 34 -4 0 -45 -24
-92 -52z"/>
<path d="M28768 17338 l-68 -40 0 -664 c0 -455 3 -664 10 -664 6 0 40 17 75
37 l65 37 0 668 c0 367 -3 668 -7 667 -5 -1 -38 -19 -75 -41z"/>
<path d="M34980 17186 l-205 -134 -3 -491 c-1 -270 1 -491 4 -491 3 0 100 55
215 123 l209 122 0 503 c0 276 -3 502 -7 501 -5 0 -100 -60 -213 -133z"/>
<path d="M37692 17043 l3 -228 210 -122 c116 -67 213 -122 218 -122 4 -1 6
101 5 225 l-3 225 -190 111 c-104 60 -202 116 -218 124 l-27 15 2 -228z"/>
<path d="M29160 16745 c0 -283 3 -515 8 -515 4 0 59 31 122 68 l115 68 3 381
2 381 -116 66 c-64 36 -121 66 -125 66 -5 0 -9 -230 -9 -515z"/>
<path d="M28500 17181 l-45 -27 -3 -683 -2 -682 50 43 50 43 0 668 c0 367 -1
667 -2 666 -2 0 -23 -13 -48 -28z"/>
<path d="M31450 17143 c6 -13 15 -23 21 -23 6 0 7 -5 3 -12 -4 -7 -3 -8 4 -4
8 4 17 -4 24 -21 10 -24 12 -25 16 -8 2 10 -1 21 -7 23 -6 2 -11 8 -11 13 0 6
5 7 10 4 6 -3 10 -1 10 5 0 7 -8 9 -21 5 -16 -5 -19 -4 -14 5 6 9 4 11 -4 6
-7 -5 -19 0 -27 10 -14 18 -14 18 -4 -3z"/>
<path d="M29620 16745 l0 -256 58 32 c31 18 98 56 147 85 l90 52 3 88 2 89
-140 80 c-78 44 -145 82 -150 83 -6 2 -10 -94 -10 -253z"/>
<path d="M31033 16945 c-40 -22 -73 -42 -73 -45 0 -3 33 -25 73 -47 l72 -42 3
45 c2 24 2 63 0 87 l-3 42 -72 -40z"/>
<path d="M34393 16807 l-203 -131 0 -473 c0 -260 2 -473 5 -473 3 0 65 35 137
78 73 44 165 97 203 118 l70 40 3 487 c1 268 -1 487 -5 486 -5 0 -99 -60 -210
-132z"/>
<path d="M38280 16755 c0 -97 4 -175 8 -173 5 2 75 41 156 87 l147 83 -98 57
c-54 31 -124 72 -155 90 l-58 32 0 -176z"/>
<path d="M37254 16863 c2 -10 7 -90 10 -178 4 -88 9 -183 12 -212 l6 -52 129
-75 129 -74 0 226 0 227 -135 78 c-74 42 -139 77 -145 77 -6 0 -9 -8 -6 -17z"/>
<path d="M30742 16778 c-29 -17 -52 -32 -50 -33 4 -4 960 -555 1028 -592 39
-22 61 -28 75 -22 35 14 100 10 158 -10 32 -11 57 -18 57 -16 0 2 -34 23 -75
46 -41 23 -71 47 -68 52 3 6 1 7 -5 3 -6 -4 -240 125 -519 287 -279 162 -517
299 -528 305 -17 8 -31 5 -73 -20z"/>
<path d="M37690 16440 c0 -120 4 -190 10 -190 18 0 330 182 325 190 -5 8 -319
190 -329 190 -3 0 -6 -85 -6 -190z"/>
<path d="M33813 16432 l-212 -137 0 -459 -1 -458 23 14 c12 8 109 65 215 127
l192 113 0 469 c0 258 -1 469 -2 468 -2 0 -98 -62 -215 -137z"/>
<path d="M30158 16443 l-78 -45 0 -133 0 -133 128 -73 c70 -40 137 -79 150
-87 l22 -14 0 228 0 229 -66 38 c-36 20 -69 37 -73 36 -3 -1 -41 -21 -83 -46z"/>
<path d="M35507 16312 l-147 -87 1 -323 c0 -275 2 -322 14 -312 8 6 11 19 8
27 -4 9 -2 14 3 11 48 -27 189 -114 275 -170 58 -37 109 -68 112 -68 4 0 7
100 7 223 l0 222 -38 20 -37 20 -17 255 c-9 140 -17 258 -17 263 -2 13 -15 7
-164 -81z"/>
<path d="M30530 16096 l0 -224 150 -86 c82 -47 152 -86 155 -86 3 0 5 101 5
224 l0 224 -148 86 c-82 47 -152 86 -155 86 -4 0 -7 -101 -7 -224z"/>
<path d="M29882 16282 l-24 -18 26 -17 c34 -23 36 -22 36 18 0 40 -5 42 -38
17z"/>
<path d="M31775 16291 c-3 -5 -2 -12 3 -15 5 -3 9 1 9 9 0 17 -3 19 -12 6z"/>
<path d="M37198 16172 l-87 -57 -1 -103 0 -102 53 30 c28 17 109 63 180 102
70 40 127 75 127 79 0 6 -174 110 -181 108 -2 0 -43 -26 -91 -57z"/>
<path d="M33228 16052 l-208 -134 0 -191 1 -192 206 -118 c113 -65 207 -116
209 -114 3 2 3 202 2 443 l-3 440 -207 -134z"/>
<path d="M29653 16153 l-33 -17 0 -186 0 -187 128 -73 c70 -41 137 -80 150
-88 l22 -14 0 228 0 229 -108 63 c-60 34 -113 62 -118 61 -5 0 -24 -8 -41 -16z"/>
<path d="M34983 16003 l-213 -125 0 -482 0 -481 21 35 c21 35 45 62 129 150
72 76 120 131 120 139 0 4 15 21 33 37 17 17 53 54 80 82 l47 51 -2 360 -3
359 -212 -125z"/>
<path d="M30992 15828 l3 -223 140 -82 c77 -45 146 -82 153 -83 10 0 12 48 10
222 l-3 222 -140 83 c-77 45 -146 82 -153 83 -10 0 -12 -48 -10 -222z"/>
<path d="M29383 15997 c-40 -23 -73 -45 -73 -49 0 -7 137 -88 151 -88 5 0 9
41 9 90 0 50 -3 90 -7 89 -5 0 -41 -19 -80 -42z"/>
<path d="M36935 16001 c-3 -5 -1 -12 5 -16 5 -3 10 1 10 9 0 18 -6 21 -15 7z"/>
<path d="M30080 15723 l1 -228 140 -80 c77 -44 144 -81 150 -83 5 -2 9 85 9
221 l0 225 -142 83 c-79 45 -146 84 -150 86 -5 2 -8 -98 -8 -224z"/>
<path d="M32930 15916 c0 -22 -58 -79 -75 -73 -8 4 -17 2 -20 -2 -7 -13 -142
-28 -311 -36 -74 -3 -110 -10 -143 -25 -61 -30 -175 -52 -235 -45 -28 3 -73 8
-101 11 -66 8 -177 35 -303 77 -53 17 -66 26 -82 56 l-18 36 -7 -26 c-10 -39
11 -104 45 -137 31 -32 194 -91 310 -113 46 -8 92 -28 156 -65 130 -76 124
-76 124 -15 0 49 1 51 28 51 15 0 51 3 80 6 l52 7 0 -106 0 -106 68 -39 c37
-22 85 -50 107 -62 22 -12 85 -49 141 -81 55 -33 103 -59 105 -59 3 0 5 101 6
224 l0 224 -58 33 c-31 19 -56 35 -54 38 2 2 25 -8 51 -23 25 -14 48 -26 50
-26 2 0 4 21 4 48 0 42 4 50 36 76 20 16 42 44 50 62 16 39 19 104 4 104 -5 0
-10 -6 -10 -14z"/>
<path d="M29160 15617 l0 -223 150 -87 c82 -48 152 -87 155 -87 3 0 4 102 3
226 l-3 226 -145 84 c-80 46 -148 84 -152 84 -5 0 -8 -100 -8 -223z"/>
<path d="M31450 15566 l0 -224 140 -81 c76 -45 146 -84 155 -87 13 -5 15 20
15 218 l0 225 -150 87 c-82 47 -152 86 -155 86 -3 0 -5 -101 -5 -224z"/>
<path d="M34535 15739 c-38 -23 -113 -66 -165 -96 -52 -31 -114 -67 -137 -82
l-42 -26 -1 -337 0 -336 149 -86 150 -87 50 28 c28 15 55 37 61 48 7 14 10
180 8 518 l-3 497 -70 -41z"/>
<path d="M28851 15691 l-103 -59 73 -42 c41 -24 95 -56 122 -71 26 -16 52 -29
57 -29 6 0 10 51 10 130 l0 130 -27 0 c-16 0 -75 -27 -132 -59z"/>
<path d="M35940 15516 l0 -226 24 -11 c21 -10 45 1 215 99 138 79 188 112 179
119 -7 6 -89 54 -183 108 -93 54 -185 106 -202 117 l-33 20 0 -226z"/>
<path d="M30532 15458 l3 -222 95 -56 c52 -31 121 -71 153 -89 l57 -32 0 228
-1 228 -144 83 c-79 45 -149 82 -155 82 -7 0 -10 -70 -8 -222z"/>
<path d="M36530 15625 l0 -45 40 20 c22 11 40 22 40 24 0 4 -69 46 -76 46 -2
0 -4 -20 -4 -45z"/>
<path d="M29622 15354 l3 -228 140 -83 c77 -45 143 -82 148 -82 4 -1 6 101 5
225 l-3 226 -90 52 c-49 29 -116 67 -148 85 l-57 33 2 -228z"/>
<path d="M31910 15303 l0 -228 131 -75 c72 -41 153 -88 180 -104 l49 -28 -2
228 -3 228 -135 79 c-74 43 -154 89 -177 103 l-43 25 0 -228z"/>
<path d="M33011 15298 c-2 -212 -1 -224 18 -235 17 -11 43 1 210 100 105 61
191 114 191 118 0 7 -401 239 -412 239 -3 0 -6 -100 -7 -222z"/>
<path d="M28700 15296 c0 -149 2 -175 17 -187 9 -8 77 -49 152 -91 l136 -78 3
177 c1 97 -1 180 -5 184 -13 12 -287 169 -295 169 -5 0 -8 -78 -8 -174z"/>
<path d="M33970 15406 c-30 -19 -123 -74 -206 -122 l-152 -89 205 -118 c113
-65 207 -116 209 -114 2 2 3 110 2 240 l-3 236 -55 -33z"/>
<path d="M36805 15377 c-61 -35 -324 -185 -585 -334 -1459 -830 -1433 -815
-1419 -828 8 -6 690 -402 1517 -879 l1502 -868 133 75 c72 42 164 99 202 128
155 116 308 302 390 475 42 88 89 229 100 294 4 25 9 56 12 70 10 48 11 276 2
335 -5 33 -11 71 -13 85 -7 51 -49 185 -81 263 -65 152 -163 297 -281 413
-116 114 -114 114 -749 484 -553 323 -600 350 -610 350 -6 0 -60 -29 -120 -63z"/>
<path d="M30990 15196 l0 -224 148 -86 c82 -47 152 -86 155 -86 4 0 7 101 7
224 l0 224 -150 86 c-82 47 -152 86 -155 86 -3 0 -5 -101 -5 -224z"/>
<path d="M35465 15260 l-100 -59 -5 -105 -5 -105 37 -21 37 -21 153 87 c196
111 207 119 201 144 -3 12 -46 43 -110 80 -58 33 -106 60 -106 60 -1 -1 -47
-27 -102 -60z"/>
<path d="M30080 15087 l0 -225 113 -65 c61 -36 129 -75 150 -87 l37 -22 0 229
0 228 -141 80 c-77 44 -144 82 -150 83 -5 2 -9 -86 -9 -221z"/>
<path d="M32430 15001 l0 -227 38 -21 37 -21 175 102 c148 87 175 107 175 127
0 20 -31 41 -212 145 l-213 122 0 -227z"/>
<path d="M29160 15031 l0 -179 150 -86 c82 -47 152 -86 155 -86 3 0 5 78 5
174 0 127 -3 176 -12 184 -12 9 -229 136 -275 161 l-23 12 0 -180z"/>
<path d="M33600 15060 c0 -66 4 -120 8 -120 5 0 35 16 68 36 32 20 76 45 97
55 20 11 37 23 37 27 0 7 -193 122 -205 122 -3 0 -5 -54 -5 -120z"/>
<path d="M31450 14933 l0 -228 103 -58 c56 -32 125 -71 153 -87 l50 -30 0 227
-1 227 -110 63 c-60 35 -129 75 -152 89 l-43 25 0 -228z"/>
<path d="M33325 15030 c-55 -33 -101 -63 -103 -68 -1 -5 21 -21 50 -37 29 -16
73 -41 97 -57 71 -44 71 -44 71 97 0 69 -3 125 -7 125 -5 0 -53 -27 -108 -60z"/>
<path d="M30530 14826 l0 -224 149 -86 c82 -47 151 -86 155 -86 3 0 6 101 6
224 l0 224 -150 86 c-82 47 -152 86 -155 86 -3 0 -5 -101 -5 -224z"/>
<path d="M34893 14927 l-123 -72 0 -80 0 -81 54 -29 53 -29 159 90 159 89 3
41 3 41 -89 51 c-49 29 -91 52 -93 51 -2 0 -59 -33 -126 -72z"/>
<path d="M29622 14763 l3 -177 82 -47 c46 -27 112 -64 148 -84 l65 -37 0 179
0 178 -144 83 c-79 45 -147 82 -150 82 -4 0 -5 -80 -4 -177z"/>
<path d="M31910 14666 l0 -225 85 -51 c47 -27 87 -50 89 -50 2 0 42 -22 89
-50 47 -27 88 -50 91 -50 3 0 6 101 6 224 l0 224 -137 77 c-76 43 -157 89
-180 102 l-43 25 0 -226z"/>
<path d="M33031 14856 c-13 -16 -18 -245 -6 -247 13 -3 234 126 232 135 -2 7
-202 126 -212 126 -1 0 -8 -6 -14 -14z"/>
<path d="M34189 14783 c-1 -32 -3 -90 -5 -129 -3 -58 0 -74 14 -86 23 -21 262
-158 274 -158 5 0 39 16 74 36 l64 36 0 61 -1 62 -200 115 c-110 63 -205 117
-210 118 -5 2 -10 -23 -10 -55z"/>
<path d="M33958 14782 c-32 -21 -58 -39 -58 -42 0 -6 114 -70 124 -70 3 0 6
34 6 75 0 41 -3 75 -7 74 -5 0 -34 -17 -65 -37z"/>
<path d="M30990 14608 c0 -95 3 -197 6 -225 l7 -53 126 -73 c69 -41 136 -80
149 -86 l23 -12 -5 228 -4 228 -139 82 c-76 45 -144 82 -150 82 -10 1 -13 -40
-13 -171z"/>
<path d="M32758 14697 c-48 -28 -85 -54 -82 -58 6 -10 161 -99 171 -99 9 0 12
195 3 203 -3 3 -44 -18 -92 -46z"/>
<path d="M30080 14503 l0 -178 141 -80 c77 -44 144 -81 150 -83 5 -2 9 67 9
171 l0 175 -112 65 c-62 36 -130 75 -150 87 l-38 22 0 -179z"/>
<path d="M32467 14527 l-37 -21 0 -124 0 -124 38 23 c20 12 84 49 142 82 125
71 117 65 94 74 -10 4 -53 27 -94 51 -41 24 -82 48 -90 52 -10 6 -29 1 -53
-13z"/>
<path d="M33600 14408 l0 -143 147 -85 c81 -47 153 -87 161 -88 7 -2 38 11 68
29 l55 34 -3 75 -3 75 -185 108 c-102 59 -197 114 -212 123 l-28 15 0 -143z"/>
<path d="M31452 14294 l3 -226 70 -40 c39 -23 90 -52 115 -65 25 -14 60 -34
78 -45 l32 -20 0 69 c0 37 3 138 6 223 l7 155 -134 76 c-74 42 -144 82 -157
88 l-22 12 2 -227z"/>
<path d="M33388 14452 c-27 -15 -48 -29 -48 -32 0 -3 23 -18 50 -33 l50 -28 0
60 c0 34 -1 61 -2 61 -2 0 -24 -13 -50 -28z"/>
<path d="M30530 14288 c0 -68 3 -146 6 -174 l6 -51 149 -86 149 -86 0 173 0
174 -47 30 c-96 60 -242 142 -252 142 -7 0 -11 -43 -11 -122z"/>
<path d="M31910 14110 l0 -149 125 72 c69 40 125 74 125 77 0 3 -30 23 -67 43
-38 20 -94 53 -125 72 l-58 34 0 -149z"/>
<path d="M33020 14103 l0 -148 93 -52 c50 -29 125 -72 166 -97 l74 -44 43 26
44 27 0 97 0 96 -72 43 c-99 57 -186 107 -228 131 -19 11 -54 31 -77 45 l-43
25 0 -149z"/>
<path d="M30990 13978 l0 -173 146 -83 c81 -45 148 -81 149 -80 1 2 5 77 9
168 l6 166 -150 87 c-82 48 -152 87 -155 87 -3 0 -5 -78 -5 -172z"/>
<path d="M32811 14119 l-34 -20 33 -20 c17 -11 35 -19 39 -17 3 2 4 20 1 41
l-5 37 -34 -21z"/>
<path d="M34475 14048 c-77 -45 -164 -94 -192 -110 -29 -16 -53 -31 -53 -33 0
-6 170 -105 181 -105 14 0 389 220 389 229 -1 7 -166 101 -177 101 -5 0 -71
-37 -148 -82z"/>
<path d="M34780 13829 c-102 -61 -191 -113 -198 -118 -9 -5 200 -131 614 -370
532 -307 630 -361 648 -353 12 5 101 57 198 115 128 75 174 107 165 114 -6 6
-275 162 -597 348 -322 185 -598 345 -615 355 l-30 18 -185 -109z"/>
<path d="M32452 13914 c-21 -14 -22 -23 -22 -137 l0 -123 58 -33 c31 -19 74
-45 94 -58 21 -12 40 -23 42 -23 2 0 41 -22 87 -49 l83 -49 28 18 29 18 1 116
c0 64 -1 118 -3 120 -2 2 -49 29 -104 61 -55 31 -104 60 -110 65 -5 4 -44 25
-86 48 -70 39 -77 40 -97 26z"/>
<path d="M31450 13789 l0 -91 68 37 c103 57 103 55 18 103 -40 23 -76 42 -80
42 -3 0 -6 -41 -6 -91z"/>
<path d="M32242 13792 l-22 -17 21 -13 c26 -16 31 -12 27 22 -3 24 -4 25 -26
8z"/>
<path d="M33862 13699 c-106 -61 -190 -114 -187 -119 2 -4 45 -31 95 -59 l90
-51 183 107 c210 123 219 129 191 140 -10 4 -51 26 -90 50 -39 24 -75 43 -80
43 -5 0 -96 -50 -202 -111z"/>
<path d="M31917 13603 c-4 -3 -7 -70 -7 -149 l0 -142 38 -7 c20 -5 42 -9 47
-11 65 -15 227 -28 254 -19 19 6 21 14 21 73 l0 67 -68 39 c-180 104 -272 156
-275 156 -2 0 -7 -3 -10 -7z"/>
<path d="M33016 13595 c-4 -12 -1 -16 11 -13 18 3 21 20 5 26 -5 1 -12 -4 -16
-13z"/>
<path d="M34220 13500 c-102 -61 -185 -115 -185 -120 0 -11 1222 -720 1239
-720 6 0 26 9 45 21 19 11 48 28 65 37 17 10 88 51 158 92 l128 74 -28 17
c-66 42 -1225 709 -1231 709 -3 0 -89 -50 -191 -110z"/>
<path d="M31701 13483 l-43 -26 40 -24 c23 -14 45 -24 49 -24 9 1 12 101 3
101 -3 -1 -25 -13 -49 -27z"/>
<path d="M33307 13381 c-103 -60 -190 -111 -193 -114 -5 -4 32 -28 167 -105
25 -14 32 -11 195 84 93 53 182 105 198 115 l28 17 -23 15 c-48 30 -171 97
-177 96 -4 0 -92 -49 -195 -108z"/>
<path d="M32430 13305 c0 -9 6 -12 15 -9 8 4 15 7 15 9 0 2 -7 5 -15 9 -9 3
-15 0 -15 -9z"/>
<path d="M33665 13175 c-104 -63 -189 -117 -188 -121 1 -3 281 -168 623 -365
l621 -359 167 97 c92 53 179 103 194 112 16 9 28 19 28 22 0 3 -102 64 -227
136 -126 72 -407 235 -627 362 -219 127 -399 231 -400 230 0 0 -86 -52 -191
-114z"/>
<path d="M31215 13203 c-49 -30 -96 -57 -103 -62 -8 -4 68 -53 205 -132 120
-69 368 -212 551 -318 l333 -192 57 33 c31 18 73 42 93 53 109 61 239 140 239
144 0 6 -17 16 -117 72 -29 16 -101 58 -162 93 -99 57 -116 64 -183 70 -41 4
-85 9 -99 11 -13 2 -44 6 -69 9 -139 19 -322 93 -532 214 -59 34 -111 62 -115
61 -4 0 -48 -25 -98 -56z"/>
<path d="M32845 13119 c-87 -46 -259 -110 -338 -124 l-38 -7 138 -80 c120 -70
141 -79 164 -71 14 6 105 56 202 113 154 89 175 104 160 115 -10 6 -49 29 -88
50 -38 20 -74 41 -79 46 -15 14 -25 11 -121 -42z"/>
<path d="M36190 13009 c-101 -60 -188 -113 -193 -118 -4 -4 275 -172 628 -376
l635 -367 200 113 c109 63 196 117 192 121 -8 7 -1271 738 -1275 737 -1 0 -85
-49 -187 -110z"/>
<path d="M30733 12927 l-191 -112 41 -26 c23 -14 69 -41 102 -59 33 -18 89
-50 124 -72 34 -21 64 -38 66 -38 2 0 39 -21 82 -46 215 -128 683 -394 692
-394 5 0 79 40 163 89 199 115 228 132 228 136 0 3 -52 34 -130 78 -39 22
-119 68 -355 205 -33 19 -76 43 -95 54 -19 11 -71 41 -115 67 -179 106 -403
231 -411 230 -5 0 -95 -51 -201 -112z"/>
<path d="M33108 12847 c-104 -61 -188 -114 -188 -117 1 -6 1226 -714 1244
-718 7 -1 64 27 127 64 63 36 149 86 192 111 43 25 75 49 70 54 -4 4 -105 63
-223 131 -118 68 -392 227 -609 352 -216 126 -401 230 -410 232 -9 2 -100 -47
-203 -109z"/>
<path d="M35628 12678 c-146 -87 -185 -115 -175 -124 6 -6 290 -172 629 -368
l618 -356 199 113 c110 61 197 115 193 119 -15 14 -1256 728 -1266 728 -6 0
-95 -51 -198 -112z"/>
<path d="M30325 12691 c-27 -16 -115 -66 -194 -111 l-144 -83 29 -24 c16 -12
32 -23 36 -23 3 0 42 -21 85 -46 43 -26 150 -88 238 -139 88 -50 268 -154 400
-230 132 -76 258 -149 281 -162 l41 -23 174 101 c96 55 184 107 197 115 23 15
18 18 -170 126 -106 61 -231 133 -278 161 -105 62 -100 59 -350 202 -113 64
-222 128 -242 141 -21 13 -41 24 -45 24 -5 0 -30 -13 -58 -29z"/>
<path d="M32556 12522 c-183 -108 -195 -117 -174 -129 13 -6 295 -169 628
-362 l605 -350 55 31 c127 71 341 200 338 203 -1 1 -93 54 -203 117 -110 63
-383 221 -607 351 -224 130 -415 240 -426 246 -16 8 -53 -10 -216 -107z"/>
<path d="M35078 12357 c-103 -62 -188 -115 -188 -118 0 -4 281 -169 625 -368
l625 -361 201 114 201 114 -68 40 c-38 22 -143 82 -234 134 -91 52 -345 199
-565 327 -220 127 -402 231 -405 230 -3 0 -89 -51 -192 -112z"/>
<path d="M29680 12319 c-74 -44 -161 -94 -194 -112 -68 -36 -71 -30 54 -101
41 -23 167 -96 280 -163 368 -215 701 -405 718 -409 17 -4 383 205 389 222 1
5 -25 24 -60 43 -79 44 -950 546 -999 578 -21 12 -41 23 -45 23 -5 0 -69 -36
-143 -81z"/>
<path d="M31997 12195 l-189 -113 69 -40 c366 -213 1168 -675 1178 -678 15 -6
407 218 397 227 -4 4 -97 59 -207 122 -110 63 -388 223 -617 356 -229 132
-423 241 -430 240 -7 0 -98 -52 -201 -114z"/>
<path d="M34585 12067 c-66 -40 -151 -91 -188 -113 l-68 -41 625 -361 624
-361 152 84 c83 47 174 98 202 114 l50 29 -68 40 c-38 22 -139 80 -224 129
-85 49 -335 193 -556 321 -220 128 -407 232 -415 231 -8 0 -68 -33 -134 -72z"/>
<path d="M28978 11916 c-153 -88 -288 -171 -301 -184 -14 -13 -37 -46 -52 -75
-40 -73 -45 -190 -11 -262 47 -102 72 -121 386 -297 25 -14 116 -67 204 -117
87 -50 188 -108 225 -128 36 -20 570 -324 1186 -676 742 -425 1149 -652 1207
-674 226 -86 461 -99 672 -38 106 31 178 63 291 129 50 29 156 90 238 135 81
46 147 86 147 90 0 3 -91 58 -203 122 -111 64 -402 232 -647 374 -245 142
-560 324 -700 405 -140 80 -500 288 -800 461 -300 174 -680 393 -845 489 -165
95 -336 193 -380 218 -97 54 -96 53 -216 125 -53 31 -103 58 -110 61 -8 2
-139 -69 -291 -158z m659 -288 c34 -38 43 -64 43 -127 0 -117 -80 -264 -183
-335 -49 -34 -65 -40 -112 -40 -47 -1 -59 3 -82 27 -27 26 -28 32 -28 122 0
56 5 99 11 105 9 9 35 -2 103 -40 l92 -52 59 39 60 38 0 143 c0 78 4 142 8
142 5 0 18 -10 29 -22z m-512 -166 c-4 -9 -16 -41 -27 -70 -12 -29 -24 -50
-27 -47 -3 4 -16 -24 -28 -62 l-23 -68 4 55 c3 30 19 94 36 142 29 81 33 87
52 77 13 -7 17 -16 13 -27z"/>
<path d="M31615 11971 c-16 -10 -97 -58 -180 -106 -82 -49 -156 -93 -162 -99
-10 -9 141 -100 613 -373 l625 -361 117 68 c229 132 265 155 263 165 -1 6 -93
62 -204 126 -111 64 -390 225 -619 357 -229 133 -418 242 -420 242 -2 0 -16
-9 -33 -19z"/>
<path d="M33982 11711 c-101 -60 -188 -113 -192 -117 -5 -5 268 -169 610 -366
l618 -357 152 84 c83 47 174 98 202 114 l50 29 -68 40 c-38 21 -127 73 -199
114 -71 41 -318 183 -548 317 -230 133 -424 244 -430 247 -7 2 -95 -45 -195
-105z"/>
<path d="M30902 11552 c-153 -91 -190 -118 -180 -127 11 -10 1150 -670 1215
-704 20 -10 39 -3 160 68 238 136 255 147 241 158 -12 10 -167 99 -273 158
-27 16 -97 56 -155 90 -58 34 -251 147 -430 250 -179 103 -338 195 -355 205
l-30 17 -193 -115z"/>
<path d="M33595 11485 c-11 -7 -98 -58 -193 -115 -95 -57 -170 -106 -165 -111
4 -4 281 -165 614 -358 l607 -350 152 84 c83 47 174 98 202 114 l50 29 -68 40
c-38 21 -127 73 -199 114 -71 41 -319 184 -550 317 -231 134 -422 245 -425
246 -3 2 -14 -3 -25 -10z"/>
<path d="M32868 11058 c-104 -62 -188 -115 -188 -118 0 -3 274 -164 609 -358
l609 -352 196 111 c108 61 196 114 196 118 0 3 -75 49 -167 102 -93 53 -367
212 -611 353 -243 141 -445 256 -450 256 -4 0 -91 -51 -194 -112z"/>
<path d="M32312 10733 c-167 -101 -190 -117 -175 -128 10 -6 268 -156 573
-332 305 -177 571 -330 591 -342 l35 -21 194 109 c107 60 196 113 197 118 2 5
-88 61 -199 124 -112 64 -386 223 -611 353 -224 130 -408 236 -410 235 -1 0
-89 -53 -195 -116z"/>
<path d="M3274 21239 c-18 -5 -53 -24 -80 -41 -101 -68 -130 -190 -121 -503 6
-222 21 -280 91 -351 60 -59 116 -79 221 -78 78 1 151 27 197 71 14 14 39 53
55 86 l28 62 0 265 c0 234 -2 271 -19 319 -26 75 -96 144 -167 165 -57 17
-155 20 -205 5z"/>
<path d="M8484 20916 c-67 -29 -124 -126 -124 -210 l0 -36 215 0 215 0 0 36
c0 92 -64 190 -138 212 -52 16 -129 15 -168 -2z"/>
<path d="M13499 20906 c-64 -17 -103 -48 -130 -103 -21 -43 -24 -65 -27 -205
-5 -192 9 -253 68 -309 94 -90 277 -69 337 38 32 57 46 159 41 293 -4 97 -9
126 -30 172 -31 68 -77 105 -148 118 -62 12 -53 12 -111 -4z"/>
<path d="M14788 20886 c-62 -22 -85 -43 -115 -103 -27 -56 -28 -62 -28 -218 0
-145 2 -164 22 -200 43 -80 105 -115 205 -115 78 0 140 28 174 79 63 96 71
349 14 461 -48 93 -164 134 -272 96z"/>
<path d="M16090 20887 c-50 -16 -105 -76 -126 -138 -23 -68 -26 -270 -5 -341
16 -57 72 -125 118 -144 42 -18 154 -18 196 0 88 36 130 137 130 311 0 129
-18 203 -63 257 -49 60 -159 84 -250 55z"/>
<path d="M19275 20885 c-56 -20 -101 -72 -121 -141 -23 -79 -23 -241 0 -317
36 -123 150 -182 281 -146 62 17 91 44 127 116 31 64 32 71 32 187 0 114 -1
125 -31 187 -31 68 -62 97 -122 117 -45 16 -117 14 -166 -3z"/>
<path d="M31370 17479 c0 -5 -4 -8 -9 -4 -5 3 -12 1 -15 -4 -4 -5 2 -8 11 -6
10 2 21 4 26 4 11 1 8 21 -3 21 -5 0 -10 -5 -10 -11z"/>
<path d="M43590 12069 c-81 -33 -81 -97 0 -140 36 -18 138 -16 177 4 102 54
42 148 -94 146 -32 0 -69 -5 -83 -10z m144 -48 c17 -18 17 -20 -3 -40 -15 -15
-34 -21 -64 -21 -67 0 -90 37 -39 64 38 21 85 20 106 -3z"/>
<path d="M43798 11923 l-97 -57 27 -16 c26 -17 29 -16 68 6 22 13 44 24 48 24
4 0 5 -21 1 -47 -5 -42 -3 -50 15 -61 19 -12 30 -8 103 34 129 75 123 69 94
89 -25 16 -28 15 -72 -10 -25 -15 -48 -25 -51 -23 -2 3 0 25 5 49 9 37 8 46
-6 57 -25 18 -30 16 -135 -45z"/>
<path d="M44026 11803 c-53 -30 -96 -59 -96 -63 0 -11 124 -80 143 -80 8 0 20
6 26 13 8 11 2 18 -29 36 -22 12 -40 24 -40 26 0 3 33 24 74 47 l75 43 -29 17
c-27 16 -29 15 -124 -39z"/>
<path d="M43215 11758 c-47 -27 -47 -64 0 -84 39 -16 84 -19 70 -5 -6 5 -23
11 -39 13 -40 4 -58 34 -31 54 44 33 113 29 122 -6 7 -25 36 -27 31 -3 -7 37
-107 57 -153 31z"/>
<path d="M44187 11701 l-98 -58 26 -17 c25 -17 27 -16 127 40 l101 58 -23 18
c-12 10 -25 18 -29 17 -3 0 -50 -26 -104 -58z"/>
<path d="M44287 11652 c-53 -31 -97 -60 -97 -64 0 -5 11 -13 24 -19 20 -9 32
-7 71 16 l47 28 -7 -56 c-7 -54 -6 -56 18 -62 18 -5 47 6 116 45 50 29 93 56
96 60 3 4 -8 13 -23 19 -24 10 -34 8 -75 -14 -51 -29 -53 -27 -38 37 8 33 6
39 -13 52 -21 13 -29 10 -119 -42z"/>
<path d="M43357 11666 c-49 -11 -86 -24 -82 -27 3 -4 18 -4 33 1 17 4 37 2 55
-7 22 -11 26 -18 21 -38 -3 -14 -2 -25 2 -25 9 1 84 103 84 114 0 9 -16 6
-113 -18z m71 -16 c-14 -22 -18 -23 -42 -14 -23 9 -20 22 7 27 47 9 48 8 35
-13z"/>
<path d="M43490 11605 c-30 -19 -59 -36 -65 -38 -5 -3 -7 -8 -3 -12 4 -4 18
-1 31 8 34 22 60 5 52 -34 -8 -36 12 -40 21 -4 5 19 11 24 24 20 25 -8 70 15
70 35 0 9 -17 26 -38 38 l-37 21 -55 -34z m89 -4 c13 -10 21 -23 17 -30 -10
-15 -58 -14 -81 2 -17 13 -17 15 6 30 29 21 29 21 58 -2z"/>
<path d="M44500 11524 c-52 -31 -96 -57 -98 -59 -2 -1 29 -21 68 -44 66 -38
74 -40 97 -27 l26 13 -42 23 c-22 13 -41 27 -41 31 0 17 29 16 56 -2 33 -22
55 -24 72 -7 9 9 4 16 -20 30 -21 13 -27 23 -20 30 7 7 24 2 54 -15 37 -22 46
-24 66 -13 18 10 21 15 10 23 -16 12 -124 73 -129 73 -2 0 -47 -25 -99 -56z"/>
<path d="M42710 11552 c0 -12 2758 -1604 2772 -1600 6 2 -601 357 -1348 788
-748 431 -1374 793 -1391 803 -18 10 -33 15 -33 9z"/>
<path d="M43602 11523 l-64 -36 32 -20 c46 -29 108 -33 148 -8 19 12 32 29 32
41 0 19 -52 60 -75 60 -5 -1 -39 -17 -73 -37z m108 -1 c27 -22 20 -39 -24 -57
-34 -15 -80 -10 -96 10 -9 10 -1 19 32 39 51 31 59 31 88 8z"/>
<path d="M43785 11412 c-33 -19 -54 -37 -46 -40 7 -2 18 1 24 7 13 13 37 14
56 2 10 -6 11 -13 2 -29 -7 -13 -7 -23 -2 -27 6 -3 15 4 21 15 6 11 21 20 33
20 25 0 67 26 67 41 0 12 -61 49 -80 48 -8 0 -42 -17 -75 -37z m110 5 c38 -29
-20 -51 -66 -26 -20 10 -20 11 -2 24 23 18 44 19 68 2z"/>
<path d="M44762 11404 c-28 -19 -28 -26 3 -62 35 -42 13 -52 -26 -12 -26 26
-36 30 -65 24 -32 -6 -32 -7 -19 -28 21 -32 87 -66 128 -66 78 0 112 44 67 85
-11 10 -20 22 -20 27 0 15 27 8 45 -12 18 -20 85 -29 85 -12 0 12 -22 37 -50
56 -32 21 -118 21 -148 0z"/>
<path d="M43922 11344 c-34 -20 -59 -40 -56 -45 7 -13 85 -52 90 -46 3 3 -11
15 -32 27 l-36 23 23 13 c21 11 29 10 57 -6 17 -11 32 -15 32 -10 0 5 -12 16
-27 23 l-27 14 24 13 c19 10 29 9 61 -10 22 -12 39 -17 39 -12 0 7 -71 53 -81
52 -2 -1 -32 -17 -67 -36z"/>
<path d="M42629 11355 c-36 -20 -42 -42 -19 -65 38 -38 140 -17 140 29 0 40
-75 63 -121 36z m75 -5 c50 -19 23 -70 -38 -70 -29 0 -57 25 -50 45 3 8 18 18
32 24 15 5 28 10 29 10 1 1 13 -3 27 -9z"/>
<path d="M44925 11289 c-49 -28 -94 -55 -99 -59 -4 -5 3 -16 17 -25 23 -15 27
-15 58 4 42 26 60 26 90 2 l24 -19 -38 -18 -38 -18 23 -18 c13 -10 26 -18 29
-18 3 0 51 26 107 58 l101 59 -28 16 c-27 16 -31 16 -68 -5 -39 -21 -41 -21
-67 -5 -34 23 -33 32 5 47 l31 13 -23 18 c-13 10 -26 19 -29 19 -3 0 -45 -23
-95 -51z"/>
<path d="M42753 11273 c-52 -36 -66 -56 -23 -33 31 17 53 5 46 -24 -3 -14 -2
-27 3 -30 5 -3 12 6 15 19 4 14 11 23 15 20 5 -3 21 -1 35 5 34 13 33 43 -1
61 -16 7 -30 15 -33 16 -3 2 -29 -14 -57 -34z m82 4 c22 -17 12 -37 -19 -37
-34 0 -53 25 -29 39 23 14 26 13 48 -2z"/>
<path d="M44050 11293 c-27 -10 -50 -36 -50 -54 0 -26 39 -49 80 -48 19 1 26
3 15 6 -41 9 -75 26 -75 38 0 46 126 69 137 25 5 -19 33 -29 33 -12 0 32 -97
63 -140 45z"/>
<path d="M42426 11211 c-31 -21 -53 -40 -50 -44 4 -4 19 2 34 13 24 17 29 18
46 5 10 -8 26 -14 34 -14 8 0 2 7 -14 15 -26 14 -27 17 -13 31 14 14 19 14 51
-5 20 -12 36 -17 36 -13 0 5 -15 18 -34 29 l-34 20 -56 -37z"/>
<path d="M44172 11202 c-34 -20 -62 -39 -62 -42 0 -10 80 -52 91 -48 6 2 -5
12 -25 23 -20 11 -36 23 -36 27 0 17 49 19 79 4 17 -9 31 -12 31 -6 0 5 -4 10
-8 10 -5 0 -17 6 -27 14 -18 13 -18 14 4 25 18 10 28 9 56 -9 19 -12 40 -20
46 -18 6 2 -11 16 -38 30 l-49 27 -62 -37z"/>
<path d="M42867 11200 c-62 -20 -92 -38 -43 -26 16 4 41 2 57 -5 23 -9 27 -14
19 -30 -6 -10 -7 -20 -3 -22 5 -3 22 19 40 49 31 52 31 54 10 53 -12 0 -48 -9
-80 -19z m61 -17 c-10 -9 -23 -13 -34 -9 -20 8 -9 22 21 28 28 6 32 0 13 -19z"/>
<path d="M42522 11153 c-29 -20 -50 -38 -47 -41 5 -5 115 65 115 73 0 11 -17
2 -68 -32z"/>
<path d="M45156 11180 c-92 -29 -101 -110 -16 -144 112 -45 269 20 223 93 -28
44 -141 72 -207 51z m134 -56 c13 -12 12 -17 -6 -34 -30 -30 -84 -36 -113 -13
-28 23 -22 39 23 58 34 15 73 10 96 -11z"/>
<path d="M42975 11140 c-33 -22 -54 -40 -47 -40 8 0 26 8 40 18 56 39 56 39
48 -16 -8 -64 0 -65 67 -16 57 41 57 58 0 20 -20 -14 -40 -26 -43 -26 -3 0 -4
15 -2 34 8 67 2 70 -63 26z"/>
<path d="M44281 11130 c-35 -20 -59 -40 -55 -43 8 -5 117 53 139 74 22 22 -25
4 -84 -31z"/>
<path d="M42598 11153 c-22 -5 -23 -26 -3 -47 8 -8 15 -19 15 -25 0 -19 -39
-12 -61 10 -23 23 -39 18 -20 -5 18 -22 63 -34 89 -25 19 7 21 12 12 28 -5 11
-15 23 -20 26 -18 11 -10 25 14 25 13 0 29 -7 36 -15 7 -8 17 -15 23 -15 17 0
-25 37 -48 43 -11 2 -28 2 -37 0z"/>
<path d="M44333 11103 c-34 -20 -60 -40 -57 -45 3 -5 18 -1 33 8 27 16 30 16
52 0 41 -28 119 -13 119 24 0 9 -63 50 -76 50 -5 -1 -37 -17 -71 -37z m98 7
c45 -25 4 -61 -45 -39 -30 14 -33 24 -8 38 22 13 29 13 53 1z"/>
<path d="M42237 11069 c-16 -28 -26 -53 -24 -56 3 -2 21 0 41 5 39 11 41 10
26 -19 -9 -15 -7 -19 6 -19 28 0 144 34 144 42 0 10 5 11 -67 -11 -35 -11 -63
-16 -63 -13 1 16 17 31 50 46 l35 16 -35 -6 c-30 -6 -33 -5 -22 9 7 8 9 18 4
21 -5 3 -15 -5 -22 -19 -11 -21 -56 -42 -67 -32 -2 3 5 20 16 38 22 36 26 49
14 49 -5 0 -21 -23 -36 -51z"/>
<path d="M42670 11069 c-30 -21 -48 -39 -39 -39 8 0 20 5 26 11 12 12 47 7 73
-11 13 -9 11 -13 -10 -30 -41 -32 -4 -23 45 12 46 33 65 61 21 33 -22 -15 -27
-15 -57 1 l-33 17 22 18 c45 36 5 26 -48 -12z"/>
<path d="M43108 11075 c-42 -24 -38 -61 8 -80 44 -18 44 -18 69 1 17 13 18 16
5 24 -22 14 -30 12 -24 -5 8 -21 -39 -20 -57 1 -17 20 -2 45 34 58 22 8 33 5
58 -13 34 -25 46 -24 26 3 -18 24 -85 30 -119 11z"/>
<path d="M45357 11032 c-53 -31 -97 -59 -97 -62 0 -4 11 -12 24 -19 20 -11 29
-11 54 4 29 17 32 17 67 0 67 -31 165 -4 165 45 0 20 -7 27 -71 63 l-45 26
-97 -57z m133 -32 c0 -15 -31 -20 -52 -9 -21 11 -21 12 3 24 23 13 49 5 49
-15z"/>
<path d="M44519 11061 l24 -18 -64 -36 c-35 -20 -56 -37 -46 -37 9 0 42 14 73
31 48 28 59 30 81 20 48 -22 34 -3 -20 28 -60 34 -85 41 -48 12z"/>
<path d="M43228 10999 c-27 -17 -48 -34 -48 -38 0 -3 18 -16 40 -29 22 -12 40
-19 40 -14 0 5 -11 15 -25 22 -14 7 -25 17 -25 22 0 18 33 20 61 4 33 -19 40
-8 8 12 -17 11 -18 16 -8 28 10 12 16 12 47 -6 19 -12 36 -19 39 -17 5 6 -60
47 -73 47 -5 0 -30 -14 -56 -31z"/>
<path d="M42403 10973 c-52 -36 -68 -61 -18 -29 23 15 28 15 55 1 35 -18 36
-23 13 -41 -10 -7 -15 -15 -12 -18 3 -3 29 11 57 31 52 36 66 61 17 29 -25
-17 -34 -14 -84 21 -2 1 7 11 20 22 41 34 7 23 -48 -16z"/>
<path d="M42073 10969 c25 -15 22 -21 -30 -53 -25 -17 -41 -32 -35 -34 6 -2
32 11 58 29 39 26 50 30 65 20 23 -14 32 -14 24 -1 -7 11 -79 50 -92 50 -4 0
0 -5 10 -11z"/>
<path d="M45526 10923 l-99 -57 32 -15 c29 -14 34 -13 61 2 27 16 32 16 59 2
75 -38 198 3 165 56 -9 15 -95 69 -108 69 -6 -1 -56 -26 -110 -57z m143 -17
c10 -11 8 -16 -8 -21 -12 -3 -31 -3 -43 1 -21 6 -21 7 -3 20 24 18 40 18 54 0z"/>
<path d="M42525 10900 c-33 -22 -54 -40 -46 -40 18 0 111 59 111 71 0 13 2 13
-65 -31z"/>
<path d="M43445 10920 c-4 -6 -24 -19 -46 -30 -30 -16 -44 -18 -58 -10 -29 15
-39 12 -17 -5 11 -8 29 -15 39 -15 21 0 107 50 107 63 0 11 -18 9 -25 -3z"/>
<path d="M42610 10914 c0 -4 7 -12 16 -19 14 -10 11 -15 -29 -40 -25 -16 -43
-33 -40 -37 2 -5 27 7 55 27 39 28 53 34 63 25 8 -7 19 -10 25 -8 5 1 -13 16
-40 31 -28 16 -50 25 -50 21z"/>
<path d="M43463 10878 c-24 -16 -43 -35 -43 -43 0 -19 39 -45 69 -45 28 0 121
52 103 58 -6 2 -24 -5 -40 -17 -41 -29 -74 -35 -97 -16 -20 15 -19 16 19 50
50 45 44 52 -11 13z"/>
<path d="M42110 10880 c-25 -25 -25 -32 0 -55 42 -38 140 -13 140 36 0 41
-104 55 -140 19z m104 4 c23 -9 20 -41 -4 -54 -32 -17 -84 -9 -89 14 -6 34 48
57 93 40z"/>
<path d="M45710 10820 l-103 -58 31 -16 c30 -15 31 -15 132 44 l102 58 -29 16
c-29 14 -32 13 -133 -44z"/>
<path d="M42250 10809 c-30 -21 -49 -39 -41 -39 7 0 26 9 43 21 35 25 42 21
29 -15 -12 -30 -9 -31 54 -16 l40 9 -30 -25 c-16 -13 -34 -24 -38 -24 -5 0 -5
-4 -2 -10 3 -5 30 6 60 26 30 20 53 40 50 44 -2 4 -27 3 -55 -3 -28 -5 -53 -8
-56 -5 -2 3 0 18 6 33 17 45 -1 46 -60 4z"/>
<path d="M42677 10818 c-26 -18 -47 -36 -47 -40 0 -4 18 -17 40 -28 47 -24 54
-18 10 9 -27 16 -29 20 -15 31 13 11 22 10 53 -4 l37 -16 -29 24 c-27 23 -28
24 -8 30 12 4 34 0 52 -9 18 -9 34 -14 37 -11 4 4 -68 46 -80 46 -1 0 -24 -15
-50 -32z"/>
<path d="M43590 10804 c-19 -14 -42 -29 -50 -34 -8 -5 -12 -11 -8 -15 5 -6
118 62 118 71 0 11 -29 0 -60 -22z"/>
<path d="M45808 10771 c-54 -31 -98 -59 -98 -62 0 -3 12 -11 26 -18 23 -10 32
-8 71 15 24 14 46 24 48 22 2 -2 -1 -23 -6 -48 -9 -40 -8 -46 12 -61 21 -16
26 -14 120 40 54 31 99 59 99 64 0 4 -11 12 -24 18 -21 10 -32 7 -72 -15 -25
-14 -49 -26 -51 -26 -4 0 0 28 14 86 3 14 -3 23 -19 31 -20 9 -37 2 -120 -46z"/>
<path d="M41825 10794 c-44 -15 -57 -22 -35 -19 44 6 87 -19 70 -40 -7 -8 -7
-15 -1 -19 5 -4 12 -3 14 1 2 5 16 29 32 56 32 57 27 58 -80 21z m65 -14 c-9
-17 -14 -18 -33 -9 -21 12 -21 12 -2 20 37 14 47 11 35 -11z"/>
<path d="M43623 10778 c-29 -14 -39 -46 -21 -64 8 -8 32 -17 54 -19 l39 -5
-38 11 c-48 14 -58 36 -28 61 32 25 76 23 95 -4 9 -12 19 -19 22 -15 4 4 -1
16 -11 27 -20 22 -75 26 -112 8z"/>
<path d="M41941 10741 c-29 -19 -48 -37 -42 -39 7 -2 18 1 26 8 11 9 21 8 44
-6 24 -14 37 -16 58 -8 40 14 40 38 1 61 l-33 20 -54 -36z m99 -12 c0 -16 -35
-27 -57 -18 -27 10 -29 18 -6 34 18 13 63 1 63 -16z"/>
<path d="M42822 10732 c-50 -33 -66 -55 -24 -33 15 8 29 7 56 -4 71 -30 116
19 51 56 -30 17 -31 17 -83 -19z m83 5 c35 -27 -17 -52 -55 -27 -13 9 -12 12
4 25 24 18 27 18 51 2z"/>
<path d="M42400 10714 c-47 -15 -62 -23 -40 -20 51 5 83 -12 75 -41 -3 -13 -2
-23 2 -23 8 0 63 92 63 104 0 10 -20 6 -100 -20z m70 -1 c-1 -19 -18 -33 -33
-27 -20 7 -22 20 -4 27 19 8 37 8 37 0z"/>
<path d="M43734 10701 l-52 -37 41 -22 c45 -25 62 -23 23 3 -14 10 -26 21 -26
25 0 17 34 20 56 5 33 -22 44 -18 14 5 -20 15 -22 21 -13 31 10 10 20 9 48 -4
51 -25 56 -20 10 8 -22 14 -42 25 -45 24 -3 0 -28 -17 -56 -38z"/>
<path d="M42038 10676 c-27 -18 -45 -36 -42 -39 4 -3 16 0 27 8 17 12 24 12
49 -1 36 -19 67 -15 82 9 9 15 7 22 -13 38 -32 26 -48 24 -103 -15z m102 -10
c0 -21 -29 -27 -57 -12 l-26 13 23 16 c25 18 60 8 60 -17z"/>
<path d="M42540 10705 c0 -4 7 -13 16 -20 14 -10 11 -15 -29 -40 -25 -16 -43
-33 -41 -37 3 -5 25 6 50 23 36 25 51 29 77 24 18 -4 30 -5 27 -3 -15 14 -100
59 -100 53z"/>
<path d="M45050 10697 c-34 -17 -37 -44 -6 -58 51 -24 126 19 97 55 -16 19
-57 20 -91 3z m78 -18 c2 -9 -8 -21 -24 -28 -50 -22 -90 13 -41 37 30 15 61
11 65 -9z"/>
<path d="M42922 10674 c-31 -21 -25 -55 12 -73 65 -31 154 37 100 76 -25 18
-85 16 -112 -3z m92 0 c20 -8 21 -38 2 -53 -16 -14 -67 -18 -85 -7 -17 11 -13
44 7 55 19 12 53 14 76 5z"/>
<path d="M46030 10659 c-40 -16 -60 -40 -60 -70 0 -30 40 -69 71 -69 11 0 19
-5 19 -10 0 -6 11 -15 24 -21 21 -10 33 -7 77 19 l52 30 -41 26 c-35 22 -45
24 -61 14 -18 -11 -18 -13 -3 -25 14 -10 11 -11 -17 -3 -42 12 -53 22 -46 42
8 20 48 38 85 38 27 0 60 -22 60 -40 0 -4 16 -10 35 -12 31 -3 35 -1 35 18 0
40 -55 68 -135 71 -38 2 -81 -2 -95 -8z"/>
<path d="M42153 10621 c-29 -20 -52 -38 -53 -41 0 -3 18 -15 40 -27 22 -12 40
-17 40 -12 0 5 -11 15 -25 21 -14 6 -25 14 -25 18 0 4 21 21 46 38 25 16 42
32 38 34 -5 3 -32 -11 -61 -31z"/>
<path d="M44814 10645 c22 -17 24 -15 -31 -45 -24 -13 -43 -28 -43 -33 0 -4
25 6 55 23 45 26 58 29 76 20 41 -23 29 -2 -15 24 -48 28 -73 35 -42 11z"/>
<path d="M45174 10641 c17 -7 17 -8 -7 -23 -14 -10 -35 -14 -48 -11 -20 4 -18
1 9 -16 38 -24 43 -26 37 -8 -3 7 10 20 30 31 40 22 37 36 -8 35 -24 0 -28 -2
-13 -8z"/>
<path d="M43099 10626 l24 -13 -54 -37 c-65 -44 -46 -49 22 -5 40 26 51 29 69
19 12 -6 24 -10 26 -7 7 6 -81 57 -98 57 -7 -1 -2 -7 11 -14z"/>
<path d="M42611 10617 c-13 -6 -29 -20 -35 -30 -26 -43 81 -77 132 -41 64 44
-24 109 -97 71z m80 -7 c25 -14 24 -35 -3 -54 -27 -19 -58 -20 -82 -3 -44 32
33 84 85 57z"/>
<path d="M42259 10568 c-24 -17 -48 -34 -52 -38 -9 -8 53 -50 74 -50 8 0 -1 9
-20 21 -31 18 -32 22 -18 36 14 14 17 14 38 -1 13 -9 30 -16 39 -16 8 1 3 7
-12 16 -16 8 -28 19 -28 23 0 18 32 20 55 5 13 -9 29 -14 34 -12 6 1 -7 13
-28 25 l-39 22 -43 -31z"/>
<path d="M44857 10558 c-69 -43 -50 -47 25 -4 36 20 54 35 43 35 -11 0 -42
-14 -68 -31z"/>
<path d="M45284 10583 c-12 -2 -30 -13 -39 -23 -15 -16 -15 -22 -5 -35 18 -22
83 -19 111 4 21 18 22 21 9 34 -18 18 -47 25 -76 20z m59 -20 c13 -12 -26 -43
-54 -43 -35 0 -48 19 -24 37 20 14 67 18 78 6z"/>
<path d="M41451 10571 c-11 -7 -10 -10 4 -18 15 -9 11 -14 -25 -41 -37 -27
-39 -31 -21 -37 13 -4 34 3 60 20 31 21 43 24 59 16 19 -10 32 -6 32 10 0 5
-86 60 -94 59 0 0 -7 -4 -15 -9z"/>
<path d="M44907 10536 c-31 -18 -55 -35 -51 -38 3 -3 26 6 51 20 37 21 45 22
40 9 -4 -9 -10 -24 -14 -34 -6 -14 0 -15 48 -9 l54 6 -37 -22 c-62 -36 -43
-41 22 -6 33 18 60 37 60 41 0 8 -73 1 -113 -10 -17 -5 -18 -3 -3 26 17 33 20
51 9 51 -5 0 -34 -15 -66 -34z"/>
<path d="M45188 10563 c7 -3 16 -2 19 1 4 3 -2 6 -13 5 -11 0 -14 -3 -6 -6z"/>
<path d="M43151 10540 c-72 -22 -94 -36 -41 -27 40 7 76 -13 67 -37 -4 -9 -3
-17 1 -20 4 -2 21 20 39 50 37 62 35 63 -66 34z m57 -19 c-9 -16 -16 -17 -31
-9 -16 8 -17 12 -6 19 8 5 22 9 32 9 14 0 15 -3 5 -19z"/>
<path d="M42373 10523 c-17 -6 -16 -28 2 -43 19 -16 20 -40 1 -40 -7 0 -25 10
-40 21 -15 12 -29 19 -32 16 -10 -10 50 -47 77 -47 38 0 45 17 21 50 -32 42 0
58 39 19 11 -11 24 -18 27 -14 4 4 -4 15 -17 26 -22 18 -52 23 -78 12z"/>
<path d="M43293 10516 c9 -7 17 -16 17 -19 0 -3 -20 -18 -44 -33 -25 -16 -42
-32 -40 -36 3 -4 28 8 56 27 39 26 55 32 69 24 45 -24 38 -5 -8 21 -54 31 -82
40 -50 16z"/>
<path d="M45390 10520 c13 -9 12 -12 -5 -26 -12 -9 -30 -13 -45 -9 l-25 5 24
-20 c13 -11 31 -20 40 -20 13 0 13 2 2 9 -10 6 -2 15 29 32 40 22 41 24 18 30
-12 4 -30 7 -38 8 -13 1 -13 0 0 -9z"/>
<path d="M41530 10487 c-31 -16 -39 -56 -14 -74 27 -20 108 -17 127 5 25 27
21 50 -13 67 -35 18 -67 19 -100 2z m86 -29 c8 -13 -22 -38 -48 -38 -24 0 -35
29 -17 41 20 12 57 11 65 -3z"/>
<path d="M45053 10449 c-29 -17 -53 -32 -53 -35 0 -7 82 -45 87 -40 3 2 -10
12 -28 22 -31 15 -32 17 -15 30 16 11 23 11 47 -1 39 -21 46 -19 18 5 -20 17
-22 21 -9 29 10 7 25 4 49 -10 18 -11 36 -18 38 -15 6 6 -58 46 -72 46 -5 0
-34 -14 -62 -31z"/>
<path d="M45523 10458 c44 -19 26 -33 -36 -30 -32 2 -57 0 -57 -5 0 -11 54
-43 72 -43 7 1 1 8 -14 16 -41 21 -34 27 21 20 79 -10 94 33 16 48 l-30 6 28
-12z"/>
<path d="M43334 10427 c-23 -20 -25 -26 -15 -45 27 -50 151 -32 151 22 0 49
-88 64 -136 23z m107 -3 c30 -36 -42 -79 -86 -50 -28 18 -24 43 9 56 33 14 62
11 77 -6z"/>
<path d="M45400 10439 c0 -5 5 -7 10 -4 6 3 10 8 10 11 0 2 -4 4 -10 4 -5 0
-10 -5 -10 -11z"/>
<path d="M41680 10431 c0 -5 6 -12 13 -15 8 -4 6 -10 -8 -20 -62 -46 -61 -45
-46 -55 11 -7 27 -1 58 21 35 23 47 27 58 18 9 -8 20 -8 30 -2 14 7 9 13 -28
35 -46 27 -77 34 -77 18z"/>
<path d="M45570 10397 c-34 -17 -37 -44 -6 -58 51 -24 126 19 97 55 -16 19
-57 20 -91 3z m78 -18 c3 -19 -43 -42 -69 -34 -26 9 -24 34 4 45 31 13 61 8
65 -11z"/>
<path d="M41762 10346 c-62 -21 -78 -40 -37 -42 43 -2 47 -4 41 -19 -3 -8 2
-19 12 -24 13 -7 23 0 50 41 27 40 31 52 21 59 -17 11 -12 12 -87 -15z m38
-26 c0 -5 -4 -10 -10 -10 -5 0 -10 5 -10 10 0 6 5 10 10 10 6 0 10 -4 10 -10z"/>
<path d="M45255 10351 c18 -7 17 -9 -11 -24 -17 -9 -42 -13 -55 -10 -22 4 -21
3 6 -16 32 -22 50 -27 40 -11 -3 5 10 19 29 31 40 23 39 39 -2 38 -24 0 -24
-1 -7 -8z"/>
<path d="M45694 10341 c17 -7 17 -8 -7 -23 -14 -10 -35 -14 -48 -11 -20 4 -18
1 9 -16 38 -25 43 -26 36 -8 -3 8 9 21 30 32 41 22 38 35 -7 34 -24 0 -28 -2
-13 -8z"/>
<path d="M40990 10333 c0 -6 2612 -1520 2736 -1586 19 -9 34 -14 34 -9 0 7
-2730 1589 -2761 1600 -5 2 -9 0 -9 -5z"/>
<path d="M45338 10317 c-7 -8 -26 -17 -41 -21 -37 -9 -36 -41 2 -54 31 -11 71
-6 71 9 0 5 11 14 25 19 32 12 32 38 -1 50 -33 13 -40 13 -56 -3z m62 -23 c0
-10 -7 -14 -22 -12 -32 5 -35 28 -4 28 17 0 26 -5 26 -16z m-59 -15 c24 -13
16 -29 -16 -29 -26 0 -40 14 -30 30 8 13 21 13 46 -1z"/>
<path d="M41858 10287 c-26 -18 -48 -35 -48 -38 0 -3 18 -15 40 -28 27 -15 45
-19 55 -13 13 7 11 11 -12 21 l-28 13 24 19 c13 11 31 24 39 28 16 9 8 31 -11
30 -7 0 -33 -15 -59 -32z"/>
<path d="M45753 10300 c-31 -13 -29 -36 5 -54 l27 -15 -33 -1 c-20 0 -35 6
-38 15 -8 19 -24 20 -24 1 0 -31 80 -35 128 -6 17 11 32 24 32 29 0 26 -62 45
-97 31z m72 -30 c0 -18 -52 -27 -67 -12 -17 17 2 33 35 30 20 -2 32 -8 32 -18z"/>
<path d="M44488 10263 c6 -2 12 -8 12 -12 0 -14 -47 -30 -71 -24 -20 4 -18 1
9 -16 38 -24 43 -26 36 -8 -3 8 10 20 31 30 44 21 45 37 3 36 -18 0 -27 -3
-20 -6z"/>
<path d="M45428 10253 c7 -3 16 -2 19 1 4 3 -2 6 -13 5 -11 0 -14 -3 -6 -6z"/>
<path d="M45483 10228 c38 -13 28 -34 -14 -30 -23 1 -30 -1 -20 -7 7 -5 10
-14 7 -20 -10 -16 -42 -13 -61 5 -9 9 -19 13 -23 9 -4 -3 2 -13 12 -21 26 -18
85 -18 92 0 3 8 16 17 30 20 44 11 17 57 -33 55 -12 0 -9 -4 10 -11z"/>
<path d="M44550 10213 c-35 -16 -35 -16 -10 -23 14 -3 25 -12 25 -20 0 -22
-47 -25 -62 -4 -7 10 -16 15 -19 11 -17 -16 21 -38 60 -35 46 3 61 30 29 53
-17 14 -17 14 5 15 13 0 32 -5 44 -11 11 -6 22 -8 25 -6 4 5 -51 38 -59 36 -2
0 -19 -8 -38 -16z"/>
<path d="M45358 10213 c7 -3 16 -2 19 1 4 3 -2 6 -13 5 -11 0 -14 -3 -6 -6z"/>
<path d="M45522 10168 c-15 -8 -22 -19 -20 -32 2 -17 11 -22 45 -24 50 -4 83
11 83 37 0 31 -61 41 -108 19z m83 -8 c11 -17 -15 -40 -46 -40 -35 0 -48 19
-24 37 22 16 61 17 70 3z"/>
<path d="M44659 10132 c-47 -39 11 -75 76 -48 23 10 35 22 35 34 0 36 -72 44
-111 14z m88 -8 c8 -21 -13 -34 -54 -34 -22 0 -33 5 -33 15 0 31 75 48 87 19z"/>
<path d="M44590 10129 c0 -5 5 -7 10 -4 6 3 10 8 10 11 0 2 -4 4 -10 4 -5 0
-10 -5 -10 -11z"/>
<path d="M44758 10068 l-21 -21 24 -19 c28 -23 74 -18 103 12 16 16 17 22 6
34 -19 24 -85 21 -112 -6z m97 2 c11 -19 -16 -40 -51 -40 -42 0 -51 14 -22 34
26 18 64 21 73 6z"/>
<path d="M44354 10065 c-18 -15 -18 -16 11 -40 l30 -25 -32 0 c-20 0 -36 6
-42 17 -5 10 -13 14 -18 10 -11 -12 26 -37 54 -37 35 0 92 27 100 46 14 37
-64 59 -103 29z m70 -1 c25 -9 19 -33 -10 -40 -33 -8 -68 21 -44 36 18 11 32
12 54 4z"/>
<path d="M44520 10001 c0 -5 9 -11 20 -13 12 -2 20 -7 20 -13 0 -6 -23 -9 -55
-7 -62 4 -72 -9 -25 -33 38 -19 64 -19 28 1 -39 21 -35 28 11 20 70 -11 100
22 40 43 -39 13 -39 13 -39 2z"/>
<path d="M44415 9980 c-3 -5 -1 -10 4 -10 6 0 11 5 11 10 0 6 -2 10 -4 10 -3
0 -8 -4 -11 -10z"/>
<path d="M44125 9962 c-38 -15 -39 -16 -15 -22 14 -3 26 -14 28 -23 3 -13 -4
-17 -28 -17 -18 0 -33 6 -36 15 -8 19 -24 20 -24 1 0 -8 14 -19 30 -25 56 -19
109 22 63 48 -17 9 -17 10 0 17 10 3 30 1 44 -5 36 -16 41 -6 6 12 -25 13 -33
13 -68 -1z"/>
<path d="M44588 9936 l-28 -12 32 -12 c26 -10 29 -14 18 -27 -18 -22 -46 -19
-64 7 -9 12 -19 18 -23 14 -11 -11 35 -46 61 -46 12 0 31 6 41 14 19 14 19 15
1 35 -16 18 -17 21 -3 27 8 3 27 -2 41 -11 29 -19 36 -10 9 11 -22 16 -49 16
-85 0z"/>
<path d="M45054 9931 c10 -16 -22 -33 -46 -25 -22 8 -22 8 7 15 27 6 26 7 -12
8 -45 1 -58 -13 -23 -24 23 -7 26 -21 8 -29 -7 -3 0 -4 16 -3 16 1 39 11 51
22 12 11 30 25 41 32 17 11 16 12 -14 12 -18 1 -31 -3 -28 -8z"/>
<path d="M45147 9900 c-6 -28 -9 -30 -52 -30 -25 0 -45 -3 -45 -8 0 -4 20 -6
44 -4 43 4 43 3 38 -24 -3 -19 -1 -25 7 -20 6 4 11 16 11 26 0 19 4 20 90 33
14 3 2 5 -26 6 -49 1 -51 2 -46 26 2 14 0 25 -6 25 -5 0 -12 -13 -15 -30z"/>
<path d="M44240 9887 c-34 -17 -37 -44 -6 -58 51 -24 126 19 97 55 -16 19 -57
20 -91 3z m78 -18 c2 -9 -8 -21 -24 -28 -50 -22 -90 13 -41 37 30 15 61 11 65
-9z"/>
<path d="M44158 9873 c7 -3 16 -2 19 1 4 3 -2 6 -13 5 -11 0 -14 -3 -6 -6z"/>
<path d="M41192 9847 l-23 -13 25 -12 c15 -6 26 -15 26 -20 0 -4 -32 -26 -71
-49 l-72 -41 27 -17 c26 -17 27 -17 104 28 l77 45 31 -18 c29 -16 32 -16 53
-1 22 17 21 17 -62 64 -46 26 -86 47 -88 47 -2 -1 -14 -6 -27 -13z"/>
<path d="M44343 9828 c-70 -34 0 -89 71 -57 32 15 39 34 20 54 -18 17 -59 19
-91 3z m76 -12 c8 -10 8 -16 -1 -24 -24 -20 -64 -24 -77 -9 -10 12 -8 18 11
31 28 20 52 20 67 2z"/>
<path d="M43945 9811 l-40 -18 34 -6 c40 -8 37 -31 -4 -35 -19 -3 -33 2 -42
14 -12 17 -13 17 -13 1 0 -37 94 -45 107 -9 4 8 -2 21 -12 28 -17 13 -17 14 0
20 10 4 26 2 36 -4 10 -7 24 -12 31 -12 7 0 -2 9 -20 20 -18 11 -33 20 -35 19
-1 0 -20 -8 -42 -18z"/>
<path d="M44834 9813 c16 -4 15 -7 -9 -23 -15 -10 -37 -16 -48 -13 -18 4 -19
3 -7 -6 8 -7 24 -17 34 -22 15 -9 18 -8 13 3 -3 9 7 21 29 33 43 23 43 35 2
34 -20 -1 -25 -3 -14 -6z"/>
<path d="M44934 9781 c-6 -27 -12 -31 -58 -40 l-51 -10 48 3 48 4 -6 -29 c-4
-16 -2 -29 3 -29 5 0 12 14 16 30 5 27 9 30 45 30 22 0 42 4 45 9 3 5 -14 6
-38 4 l-43 -5 5 31 c6 39 -7 41 -14 2z"/>
<path d="M41312 9691 l-101 -57 29 -17 c28 -17 30 -17 68 7 38 24 40 24 66 6
34 -22 33 -31 -6 -51 l-31 -16 26 -18 c27 -17 27 -17 127 40 55 31 100 58 100
60 0 1 -11 10 -25 19 -22 15 -26 14 -60 -5 -31 -19 -39 -20 -65 -9 -44 18 -45
27 -3 48 l37 19 -30 16 c-30 15 -32 15 -132 -42z"/>
<path d="M44059 9732 c-48 -40 14 -79 77 -49 38 19 44 41 15 57 -30 15 -66 12
-92 -8z m81 -2 c13 -9 11 -13 -9 -31 -28 -23 -64 -22 -69 4 -5 27 50 46 78 27z"/>
<path d="M43709 9721 c14 -4 27 -13 29 -20 3 -10 -6 -12 -46 -6 -73 10 -92 -4
-41 -32 42 -23 54 -16 17 10 -22 16 -20 16 35 10 53 -5 57 -4 57 15 0 21 -19
33 -53 31 -20 -1 -20 -1 2 -8z"/>
<path d="M44623 9698 c38 -13 28 -34 -14 -30 -23 1 -30 -1 -20 -7 7 -5 10 -14
7 -20 -10 -16 -42 -13 -61 5 -9 9 -19 13 -23 9 -4 -3 2 -13 12 -21 26 -18 85
-18 92 0 3 8 16 17 30 20 44 11 17 57 -33 55 -12 0 -9 -4 10 -11z"/>
<path d="M44170 9677 c-34 -17 -37 -44 -6 -58 51 -24 126 19 97 55 -16 19 -57
20 -91 3z m78 -19 c2 -12 -6 -21 -24 -28 -52 -20 -89 14 -41 38 31 15 61 10
65 -10z"/>
<path d="M44715 9650 c-6 -28 -10 -30 -51 -30 -24 0 -44 -3 -44 -8 0 -4 19 -6
41 -4 41 4 42 4 35 -22 -4 -15 -2 -26 4 -26 5 0 12 11 16 25 5 19 14 26 43 30
62 11 68 14 18 12 -48 -2 -48 -2 -43 25 7 38 -11 36 -19 -2z"/>
<path d="M43765 9651 c-58 -6 -59 -6 -37 -22 15 -11 20 -22 16 -34 -6 -14 -4
-16 12 -8 10 6 25 8 33 5 8 -3 11 0 7 6 -4 6 6 18 23 27 36 18 49 36 24 33
-10 -1 -45 -4 -78 -7z m27 -23 c-17 -8 -26 -8 -34 0 -9 9 -4 12 23 11 32 0 33
-1 11 -11z"/>
<path d="M43910 9600 c0 -5 12 -10 26 -10 16 0 24 -5 21 -12 -2 -9 -21 -12
-60 -10 -32 2 -57 0 -57 -5 0 -11 54 -43 72 -43 7 1 1 8 -14 16 -40 21 -35 27
20 19 36 -5 51 -3 60 8 10 11 9 17 0 24 -20 16 -68 25 -68 13z"/>
<path d="M41543 9557 c-61 -18 -114 -35 -118 -39 -12 -12 37 -30 66 -24 45 9
98 -21 69 -39 -5 -3 -10 -10 -10 -14 0 -12 52 -33 60 -24 4 4 35 40 68 79 l61
71 -25 12 c-34 15 -43 14 -171 -22z m76 -43 c-10 -9 -22 -12 -34 -7 -17 6 -16
8 10 19 35 14 45 10 24 -12z"/>
<path d="M43810 9579 c0 -5 5 -7 10 -4 6 3 10 8 10 11 0 2 -4 4 -10 4 -5 0
-10 -5 -10 -11z"/>
<path d="M44399 9571 c14 -4 26 -12 29 -19 3 -9 -10 -11 -51 -6 -64 8 -83 -7
-38 -31 38 -19 65 -19 29 1 -40 21 -35 26 20 19 59 -7 87 8 58 30 -11 8 -31
15 -45 14 l-26 -1 24 -7z"/>
<path d="M43986 9537 l-29 -13 27 -12 c31 -14 34 -28 6 -37 -21 -7 -60 10 -60
26 0 6 -5 7 -12 3 -15 -9 27 -44 54 -44 47 0 77 40 41 55 -17 6 -17 7 0 16 13
8 25 6 43 -5 13 -9 24 -12 24 -7 0 12 -33 31 -52 31 -7 -1 -26 -6 -42 -13z"/>
<path d="M44496 9525 c-5 -19 -15 -26 -44 -30 -64 -11 -69 -14 -15 -11 l52 3
-6 -31 c-4 -21 -2 -28 5 -21 5 6 12 19 14 30 2 15 12 21 43 23 22 2 44 7 48
12 5 4 -12 5 -38 3 -46 -6 -46 -6 -39 21 3 15 2 26 -4 26 -5 0 -13 -11 -16
-25z"/>
<path d="M41716 9453 l-99 -57 31 -14 c28 -14 33 -13 77 12 l47 26 -6 -53 c-6
-49 -5 -54 15 -64 19 -8 39 0 121 46 54 31 98 59 98 62 0 3 -12 11 -26 18 -23
10 -32 8 -71 -15 -24 -14 -47 -23 -50 -21 -3 3 -1 26 5 52 8 40 7 47 -8 55
-27 14 -26 15 -134 -47z"/>
<path d="M44180 9440 c13 -8 12 -11 -5 -25 -12 -8 -31 -13 -45 -10 l-25 5 24
-20 c13 -11 31 -20 40 -20 13 0 13 2 2 9 -10 6 -2 15 29 32 40 22 41 24 18 30
-12 4 -30 7 -38 8 -13 1 -13 0 0 -9z"/>
<path d="M44285 9415 c-3 -8 -7 -22 -10 -30 -3 -10 -18 -15 -45 -15 -22 0 -40
-3 -40 -8 0 -4 18 -6 40 -4 39 4 41 3 35 -21 -4 -14 -2 -28 4 -31 6 -4 11 1
11 11 0 32 16 44 66 53 l49 9 -51 -3 c-50 -3 -50 -3 -46 26 4 29 -5 39 -13 13z"/>
<path d="M43372 9408 c-8 -8 -8 -15 -1 -24 7 -8 7 -14 -1 -19 -5 -3 -13 0 -16
8 -3 9 -13 13 -25 10 -21 -6 -25 -18 -9 -28 6 -4 8 -10 6 -14 -6 -9 71 -13 97
-5 14 5 17 12 12 32 -5 22 -4 24 9 13 21 -17 53 -6 37 13 -6 7 -8 16 -4 19 3
4 -16 7 -43 7 -28 0 -55 -5 -62 -12z"/>
<path d="M42015 9376 c-11 -8 -55 -34 -98 -58 l-78 -45 25 -17 c24 -15 29 -15
56 -1 16 8 36 15 45 15 16 0 15 -10 -2 -57 -4 -10 54 -49 62 -41 2 2 10 26 18
53 l14 50 83 5 84 5 -36 19 c-28 15 -48 18 -97 13 -33 -3 -61 -3 -61 -1 0 2
14 11 32 20 l32 17 -23 18 c-27 22 -30 22 -56 5z"/>
<path d="M41143 9291 l-133 -78 43 -12 c77 -22 85 -23 58 -8 l-24 15 39 24
c21 14 67 40 101 59 60 33 63 33 90 18 15 -9 61 -35 101 -59 l74 -42 -91 -52
c-85 -49 -89 -53 -68 -63 20 -10 38 -3 131 52 l108 63 -94 54 c-169 99 -185
108 -194 107 -5 0 -69 -36 -141 -78z"/>
<path d="M43454 9336 c-16 -13 -17 -18 -6 -35 7 -12 8 -21 3 -21 -6 0 -13 5
-16 10 -3 6 -16 10 -27 10 -20 0 -21 -1 -3 -20 24 -26 80 -26 123 0 39 24 41
47 6 60 -35 14 -57 12 -80 -4z m58 -28 c-9 -9 -15 -9 -24 0 -9 9 -7 12 12 12
19 0 21 -3 12 -12z"/>
<path d="M43572 9280 l-44 -16 24 -17 c18 -13 20 -16 6 -16 -9 -1 -20 4 -23 9
-8 13 -45 13 -45 1 0 -16 43 -41 70 -41 15 0 35 6 45 14 16 12 17 16 6 30 -11
13 -11 16 1 16 8 0 19 -5 24 -10 8 -8 14 -7 22 2 8 10 4 17 -16 29 -24 13 -31
13 -70 -1z"/>
<path d="M41237 9251 c-27 -16 -53 -33 -58 -38 -5 -5 16 -22 51 -41 l60 -33
60 34 61 34 -61 37 c-34 20 -62 36 -63 35 -1 0 -24 -13 -50 -28z"/>
<path d="M42236 9195 c-18 -35 -41 -62 -64 -76 l-37 -21 29 -15 c26 -14 32
-13 65 5 20 11 80 27 134 37 53 9 97 19 97 21 0 2 -13 10 -28 18 -24 12 -36
12 -85 1 -31 -7 -57 -10 -57 -7 0 4 9 18 20 32 11 14 20 28 20 31 0 6 -46 29
-58 29 -4 0 -20 -25 -36 -55z"/>
<path d="M43610 9200 c-12 -8 -12 -10 2 -15 20 -8 41 2 33 16 -8 11 -16 11
-35 -1z"/>
<path d="M43693 9198 c-50 -24 -10 -76 50 -64 38 8 57 23 57 46 0 30 -61 40
-107 18z m65 -20 c-3 -7 -15 -14 -29 -16 -23 -2 -23 -2 -5 13 24 18 39 20 34
3z"/>
<path d="M41550 9145 c-10 -12 -9 -16 5 -21 17 -7 17 -8 0 -20 -13 -10 -23
-10 -37 -3 -19 10 -58 4 -58 -9 0 -4 17 -17 38 -29 l37 -21 -28 -13 c-35 -16
-30 -32 14 -40 19 -3 76 -29 127 -59 83 -47 95 -52 108 -38 14 14 9 19 -42 48
-52 29 -56 34 -40 45 17 13 17 14 -1 24 -16 9 -16 12 -3 21 8 6 24 8 35 4 25
-7 35 -7 60 1 12 3 34 -3 55 -16 32 -20 33 -22 16 -34 -17 -13 -17 -14 3 -25
18 -9 29 -7 62 13 l40 24 -101 58 c-85 48 -106 56 -124 47 -15 -6 -28 -7 -40
0 -16 9 -16 11 -1 22 15 11 15 13 2 25 -12 10 -21 10 -38 1 -16 -9 -28 -9 -46
-1 -30 14 -28 14 -43 -4z m84 -111 c13 -5 14 -9 5 -20 -13 -16 -28 -17 -49 -4
-13 9 -13 11 0 20 18 12 23 12 44 4z"/>
<path d="M43789 9132 c-29 -24 -20 -48 21 -57 36 -8 86 9 95 33 15 39 -74 57
-116 24z m71 -12 c0 -13 -28 -25 -38 -16 -3 4 0 11 8 16 20 13 30 12 30 0z"/>
<path d="M42363 9090 c-95 -57 -38 -140 97 -140 70 0 119 21 140 59 27 51 -43
101 -140 101 -47 0 -74 -6 -97 -20z m148 -30 c26 -14 24 -36 -5 -55 -32 -21
-95 -16 -110 8 -23 39 64 74 115 47z"/>
<path d="M41405 9061 c-3 -5 4 -13 16 -16 28 -9 33 -2 9 13 -11 6 -21 8 -25 3z"/>
<path d="M42617 8977 c-84 -49 -100 -76 -67 -112 29 -31 92 -49 144 -41 39 7
166 71 166 85 0 4 -11 13 -24 21 -22 11 -30 9 -85 -24 -47 -29 -69 -37 -98
-34 -65 5 -44 35 71 103 15 9 14 12 -11 26 -27 16 -30 15 -96 -24z"/>
<path d="M41757 8985 c-18 -13 -18 -14 3 -25 18 -10 25 -9 37 3 14 13 13 16
-3 25 -14 7 -24 6 -37 -3z"/>
<path d="M41846 8896 c-70 -41 -132 -78 -137 -83 -4 -4 55 -44 133 -89 l141
-80 138 79 c76 44 136 83 133 88 -5 8 -266 159 -274 159 -3 0 -63 -34 -134
-74z m234 -27 c50 -28 92 -55 95 -58 2 -4 -40 -33 -95 -64 l-98 -56 -102 58
-101 59 93 56 c51 30 99 55 106 56 6 0 53 -23 102 -51z"/>
<path d="M41923 8847 c-29 -18 -53 -35 -53 -39 0 -3 25 -21 55 -38 59 -34 58
-34 147 20 l29 18 -59 36 c-33 20 -61 36 -63 35 -2 0 -28 -15 -56 -32z"/>
<path d="M42858 8857 c-32 -18 -58 -35 -58 -38 0 -3 12 -11 26 -18 23 -10 33
-8 80 20 54 30 58 41 26 58 -12 7 -33 0 -74 -22z"/>
<path d="M41642 8871 c-9 -5 -9 -11 1 -24 11 -16 15 -16 31 -4 19 14 19 15 0
25 -11 6 -25 7 -32 3z"/>
<path d="M42738 8789 c-42 -24 5 -58 48 -36 l27 14 -24 16 c-27 20 -28 20 -51
6z"/>
<path d="M41702 8748 c5 -15 28 -23 28 -10 0 5 -7 13 -16 16 -10 4 -14 1 -12
-6z"/>
<path d="M41745 8696 c-16 -11 -17 -19 -9 -54 7 -34 12 -40 24 -32 13 9 13 11
0 20 -13 9 -12 13 8 29 12 11 28 22 35 24 9 4 8 8 -3 16 -20 14 -33 14 -55 -3z"/>
<path d="M41818 8644 c-59 -31 -16 -54 44 -23 31 16 38 23 27 30 -20 12 -40
11 -71 -7z"/>
<path d="M41755 8560 c-15 -24 17 -38 45 -20 13 9 13 11 0 20 -19 13 -37 13
-45 0z"/>
<path d="M5640 11748 c0 -4 4 -8 9 -8 6 0 12 4 15 8 3 5 -1 9 -9 9 -8 0 -15
-4 -15 -9z"/>
<path d="M5642 11470 c0 -14 2 -19 5 -12 2 6 2 18 0 25 -3 6 -5 1 -5 -13z"/>
<path d="M4420 11590 c-11 -11 -20 -29 -20 -40 0 -18 7 -20 60 -20 53 0 60 2
60 20 0 26 -34 60 -60 60 -11 0 -29 -9 -40 -20z"/>
<path d="M25993 5418 c0 -9 8 -20 17 -26 13 -8 17 -7 17 4 0 8 -3 12 -5 9 -3
-3 -10 3 -17 11 -10 14 -12 14 -12 2z"/>
<path d="M26110 5341 c0 -5 7 -12 16 -15 24 -9 28 -7 14 9 -14 17 -30 20 -30
6z"/>
<path d="M38768 5439 c-27 -15 -22 -35 15 -62 96 -73 208 -99 215 -51 2 15 -8
28 -35 46 -92 61 -164 86 -195 67z"/>
<path d="M38496 5277 c-29 -21 -15 -41 63 -87 82 -49 139 -61 161 -35 13 16
11 20 -18 45 -36 30 -123 76 -162 85 -15 3 -33 0 -44 -8z"/>
<path d="M38214 5115 c-18 -15 -18 -16 16 -46 47 -40 152 -91 180 -87 13 1 28
11 34 21 14 23 -12 45 -109 93 -78 38 -93 41 -121 19z"/>
<path d="M37945 4956 c-19 -14 -19 -15 -2 -34 52 -57 213 -113 232 -81 10 16
-30 54 -93 87 -74 39 -112 47 -137 28z"/>
<path d="M37518 4713 c-44 -11 -2 -56 99 -107 59 -29 111 -34 119 -11 9 22
-11 41 -80 79 -62 35 -108 47 -138 39z"/>
<path d="M37235 4546 c-18 -13 -17 -14 9 -37 37 -33 146 -89 173 -89 32 0 53
10 53 26 0 18 -111 91 -159 104 -47 13 -54 13 -76 -4z"/>
<path d="M36961 4391 c-8 -5 -11 -16 -8 -24 8 -22 116 -84 170 -99 41 -11 49
-10 63 4 15 15 15 18 -11 42 -37 34 -142 86 -174 86 -14 0 -32 -4 -40 -9z"/>
<path d="M36681 4227 c-8 -11 -5 -19 12 -34 52 -49 164 -97 203 -87 49 12 18
52 -80 103 -61 33 -116 40 -135 18z"/>
<path d="M36293 4005 c-8 -23 20 -49 97 -89 66 -35 101 -43 134 -30 27 10 18
32 -26 62 -100 68 -190 93 -205 57z"/>
<path d="M36033 3859 c-13 -4 -23 -13 -23 -19 0 -33 149 -120 205 -120 54 0
61 22 20 59 -39 33 -115 75 -155 84 -14 3 -35 1 -47 -4z"/>
<path d="M35758 3699 c-10 -5 -18 -17 -18 -25 0 -18 110 -90 161 -105 78 -24
120 18 60 60 -38 28 -152 81 -171 81 -8 0 -23 -5 -32 -11z"/>
<path d="M37970 3539 c0 -5 5 -7 10 -4 6 3 10 8 10 11 0 2 -4 4 -10 4 -5 0
-10 -5 -10 -11z"/>
<path d="M38040 3530 c-9 -6 -10 -10 -3 -10 6 0 15 5 18 10 8 12 4 12 -15 0z"/>
<path d="M37496 3265 c-16 -14 -25 -25 -19 -25 5 0 20 11 33 25 30 32 23 32
-14 0z"/>
<path d="M37570 3270 c-8 -5 -11 -12 -7 -16 4 -4 15 0 24 9 18 18 8 23 -17 7z"/>
<path d="M36853 2893 c-7 -2 -13 -11 -13 -19 0 -16 37 -19 60 -4 13 9 13 11 0
20 -16 10 -28 11 -47 3z"/>
</g>
</svg>
